<svg width="172" height="35" viewBox="0 0 172 35" fill="none" xmlns="http://www.w3.org/2000/svg">
<path d="M4.17526 27.5788C3.54549 27.5803 2.92664 27.3962 2.38193 27.0455C1.83723 26.6947 1.38619 26.1898 1.07489 25.5822C0.768366 24.9789 0.615492 24.2945 0.632648 23.6022C0.649805 22.9099 0.836345 22.2358 1.17229 21.6521L7.557 10.5253C7.88379 9.92734 8.34772 9.43632 8.90144 9.10242C9.4552 8.76852 10.0789 8.60373 10.7087 8.62485C11.3382 8.64159 11.9523 8.84363 12.4883 9.21027C13.0242 9.57691 13.4628 10.095 13.7591 10.7115C14.3543 11.9605 14.2799 13.4632 13.567 14.6356L7.18637 25.7623C6.86277 26.3219 6.41717 26.7817 5.8908 27.0993C5.36442 27.4168 4.77435 27.5817 4.17526 27.5788Z" fill="#9BA8CD"/>
<path d="M15.1268 27.5785C13.8391 27.5785 12.6541 26.8144 12.0319 25.5865C11.726 24.9848 11.5735 24.3022 11.5907 23.6117C11.6078 22.9212 11.794 22.2489 12.1293 21.6669L18.5018 10.5656C18.8237 9.95922 19.286 9.45947 19.8407 9.11818C20.3954 8.77685 21.0223 8.60645 21.6562 8.6246C22.9549 8.65613 24.1317 9.46227 24.7269 10.7233C25.318 11.9843 25.2314 13.4959 24.4969 14.6654L18.1257 25.7666C17.8032 26.3238 17.3594 26.7818 16.8352 27.0985C16.3111 27.4152 15.7236 27.5803 15.1268 27.5785Z" fill="#9BA8CD"/>
<path d="M25.8334 27.6732C27.6488 27.6732 29.1205 26.0739 29.1205 24.1011C29.1205 22.1283 27.6488 20.5291 25.8334 20.5291C24.0181 20.5291 22.5464 22.1283 22.5464 24.1011C22.5464 26.0739 24.0181 27.6732 25.8334 27.6732Z" fill="#9BA8CD"/>
<path d="M168.631 20.7366C169.624 20.7366 170.218 21.5204 170.218 22.8042V27.2035H171.566V22.7036C171.566 20.5204 170.64 19.2546 168.898 19.2546C168.216 19.2546 167.133 19.4618 166.489 20.8537C166.338 20.4432 166.091 20.0854 165.773 19.8184C165.454 19.5513 165.077 19.3851 164.68 19.3372C164.43 19.2864 164.176 19.2698 163.922 19.2877C163.368 19.3372 162.38 19.7201 162.011 20.5879V19.4213H160.661V27.2035H162.011V23.0038C162.011 21.3702 162.974 20.7366 163.938 20.7366C164.842 20.7366 165.436 21.5039 165.436 22.7877V27.2035H166.778V23.0038C166.778 21.7036 167.481 20.7216 168.631 20.7366ZM155.706 25.9032C156.323 25.9183 156.918 25.645 157.35 25.1495C157.782 24.654 158.013 23.9798 157.99 23.2876C157.99 21.7201 156.951 20.7366 155.706 20.7366C154.46 20.7366 153.423 21.7201 153.423 23.2876C153.398 23.9783 153.628 24.651 154.058 25.145C154.489 25.6405 155.081 25.9153 155.695 25.9032H155.706ZM155.706 27.3627C153.734 27.3627 152.088 25.7456 152.088 23.2786C152.088 20.8117 153.734 19.2456 155.706 19.2456C157.678 19.2456 159.338 20.8117 159.338 23.2786C159.338 25.7456 157.669 27.3702 155.697 27.3702L155.706 27.3627ZM145.142 23.2786L145.128 23.2876C145.128 20.8207 146.817 19.2546 148.803 19.2456C149.302 19.2349 149.798 19.3406 150.257 19.5558C150.717 19.7709 151.131 20.0909 151.472 20.4949L150.449 21.4618C150.232 21.2251 149.975 21.0384 149.693 20.9126C149.41 20.7869 149.108 20.7245 148.803 20.7291C147.559 20.7291 146.477 21.7126 146.477 23.2786C146.477 24.3372 147.044 25.2906 147.913 25.696C148.783 26.1015 149.784 25.8762 150.449 25.1285L151.487 26.0954C151.145 26.5036 150.729 26.8273 150.266 27.0456C149.804 27.2639 149.306 27.372 148.803 27.3627C146.832 27.3627 145.142 25.7456 145.142 23.2786ZM140.822 25.7096C140.821 25.5735 140.844 25.4385 140.889 25.3122C140.935 25.1858 141.002 25.0707 141.088 24.9734C141.174 24.8761 141.276 24.7985 141.389 24.7449C141.501 24.6914 141.622 24.6631 141.745 24.6615C141.868 24.6631 141.989 24.6914 142.101 24.7449C142.214 24.7985 142.316 24.8761 142.402 24.9734C142.487 25.0707 142.555 25.1858 142.6 25.3122C142.646 25.4385 142.669 25.5735 142.667 25.7096C142.655 25.9731 142.553 26.2215 142.382 26.4043C142.21 26.587 141.983 26.6903 141.745 26.693C141.507 26.6903 141.279 26.587 141.108 26.4043C140.937 26.2215 140.834 25.9731 140.822 25.7096Z" fill="#9BA8CD"/>
<path fill-rule="evenodd" clip-rule="evenodd" d="M144.513 9.53007H139.709L136.342 19.1631L132.993 9.53007H128.19L134.029 24.752L130.397 34.816H135.166L144.513 9.53007ZM115.3 17.9967C115.3 20.4287 117.215 22.0289 119.097 22.0289C120.946 22.0289 122.763 20.5397 122.763 17.9952C122.763 15.4507 120.946 13.9601 119.097 13.9601C117.215 13.9601 115.3 15.5618 115.3 17.9952V17.9967ZM122.763 26.4964V24.5704C121.789 26.2067 119.516 26.8252 118.35 26.8252C114.49 26.8252 110.628 23.4475 110.628 17.9952C110.628 12.5445 114.488 9.1668 118.35 9.1668C119.323 9.1668 121.595 9.52706 122.763 11.4186V9.53608H127.24V26.4994L122.763 26.4979V26.4964ZM109.354 26.4964H104.876V24.3888C104.128 25.95 102.314 26.8597 100.431 26.8597C96.5367 26.8597 93.0968 23.4085 93.0968 18.0643C93.0968 12.6195 96.5367 9.1638 100.431 9.1638C102.311 9.1638 104.131 10.0345 104.876 11.5972V0.288818H109.354V26.4964ZM104.779 17.9577C104.779 15.4147 103.124 13.924 101.275 13.924C99.3598 13.924 97.7691 15.5228 97.7691 17.9577C97.7691 20.4707 99.3598 22.0619 101.274 22.0619C103.158 22.0649 104.779 20.3926 104.779 17.9577ZM82.0265 17.5194C82.0265 14.9404 83.2277 14.0682 84.817 14.0682C86.3415 14.0682 87.4454 15.194 87.4454 17.4458V26.4934H91.9552V16.3575C91.9552 11.5267 89.8125 9.1638 86.4052 9.1638C84.6208 9.1638 82.8368 10.2897 82.025 11.998V9.53007H77.5178V26.4934H82.0265V17.5194ZM68.3603 26.7847C64.0774 26.7847 60.5051 23.2974 60.5051 17.9562C60.5051 12.612 64.0734 9.15929 68.3603 9.15929C72.6468 9.15929 76.2466 12.612 76.2466 17.9562C76.2466 23.3004 72.6427 26.7862 68.3603 26.7862V26.7847ZM68.3603 21.8458C70.2405 21.8458 71.8002 20.3176 71.8002 17.9577C71.8002 15.6684 70.242 14.1057 68.3603 14.1057C67.9071 14.0978 67.4573 14.1924 67.0382 14.3836C66.6191 14.5749 66.2395 14.8588 65.9226 15.2181C65.6038 15.5793 65.3538 16.0079 65.1869 16.4786C65.0203 16.9492 64.9409 17.4522 64.953 17.9577C64.9541 20.3206 66.5111 21.8458 68.3603 21.8458ZM52.42 14.0697C53.7498 14.0697 54.9185 15.2331 54.9185 17.4473V26.4964H59.396V16.8618C59.396 11.7398 57.1519 9.16079 53.555 9.16079C52.4862 9.16079 50.4735 9.52109 49.0127 12.1752C48.1687 10.2131 46.5468 9.19532 44.1497 9.19532C43.3174 9.19061 42.5019 9.452 41.7999 9.94821C41.0978 10.4445 40.5396 11.1545 40.1919 11.9935V9.53157H35.6792V26.4949H40.1879V17.5194C40.1879 14.9404 41.454 14.0682 42.8159 14.0682C44.1146 14.0682 45.2807 15.194 45.3144 17.3377V26.4949H49.8242V17.5194C49.8242 15.0529 50.9929 14.0712 52.42 14.0712V14.0697Z" fill="#9BA8CD"/>
</svg>
