<svg width="140" height="36" viewBox="0 0 140 36" fill="none" xmlns="http://www.w3.org/2000/svg">
<path d="M24.2081 6.25975C18.8664 5.83394 12.9164 5.83396 7.57463 6.25975C6.45643 6.34889 5.60918 7.2991 5.52511 8.46056C5.25547 12.1853 5.2196 17.7657 5.46684 21.4867C5.54851 22.7158 6.52086 23.7708 7.83632 23.7708H11.9601V29.4162L7.84472 29.413C4.06945 29.413 0.680785 26.3076 0.388069 21.9023C0.12158 17.8919 0.158387 12.0212 0.448895 8.00799C0.740038 3.98604 3.65428 0.906119 7.20978 0.622699C12.7945 0.177526 18.9883 0.177524 24.573 0.622698C28.1285 0.906116 31.0428 3.98604 31.3339 8.00799C31.6244 12.0212 31.6117 17.8919 31.3452 21.9023C31.0525 26.3076 27.6717 29.4256 23.8964 29.4256L19.8236 29.4224L11.9601 35.0678V29.4162L19.8236 23.7708H23.897C25.2124 23.7708 26.1848 22.7158 26.2664 21.4867C26.5137 17.7657 26.5273 12.1853 26.2577 8.46056C26.1736 7.2991 25.3264 6.34889 24.2081 6.25975Z" fill="#9BA8CD"/>
<path d="M39.3413 25.1029H51.6481V21.6737H43.0706V4.40942H39.3413V25.1029Z" fill="#9BA8CD"/>
<path d="M53.4327 25.1032H57.0554V9.73086H53.4327V25.1032ZM53.1396 5.71041C53.1396 7.0407 54.0187 8.04582 55.2441 8.04582C56.4694 8.04582 57.3485 7.0407 57.3485 5.71041C57.3485 4.38011 56.4694 3.375 55.2441 3.375C54.0187 3.375 53.1396 4.38011 53.1396 5.71041Z" fill="#9BA8CD"/>
<path d="M71.2598 9.73071H67.637L64.6536 20.9939L61.6701 9.73071H58.0474L62.7623 25.103H66.5449L71.2598 9.73071Z" fill="#9BA8CD"/>
<path d="M77.7242 25.4576C80.7876 25.4576 83.2649 23.4178 83.7444 20.6094H80.5745C80.2282 21.6736 79.2692 22.5605 77.7242 22.5605C75.6198 22.5605 74.7941 20.9937 74.7941 19.1904V18.8061H83.851V16.1159C83.851 12.4207 81.7732 9.37573 77.671 9.37573C73.5154 9.37573 71.2778 12.332 71.2778 16.5002V18.5991C71.2778 22.9152 73.8084 25.4576 77.7242 25.4576ZM74.7941 15.8203C74.7941 13.751 75.5932 12.2137 77.671 12.2137C79.6155 12.2137 80.5212 13.6623 80.5212 15.5838V15.9681H74.7941V15.8203Z" fill="#9BA8CD"/>
<path d="M93.4798 25.5168C98.1948 25.5168 101.098 21.9694 101.285 17.742H97.8218C97.5821 20.0774 96.2502 22.1172 93.4798 22.1172C90.3632 22.1172 89.0313 19.7522 89.0313 16.4413V13.0712C89.0313 9.76022 90.3632 7.39525 93.4798 7.39525C96.2502 7.39525 97.5821 9.43504 97.8218 11.7704H101.285C101.098 7.54306 98.1948 3.99561 93.4798 3.99561C87.8592 3.99561 85.3286 7.98649 85.3286 13.2781V16.2343C85.3286 21.5259 87.8592 25.5168 93.4798 25.5168Z" fill="#9BA8CD"/>
<path d="M103.253 25.1029H106.876V15.9977C106.876 13.9284 107.915 12.8642 109.54 12.8642C111.298 12.8642 112.07 14.1353 112.07 15.9091V25.1029H115.693V15.2587C115.693 11.6225 113.802 9.37576 110.792 9.37576C109.007 9.37576 107.595 10.2331 106.876 11.5634V3.52246H103.253V25.1029Z" fill="#9BA8CD"/>
<path d="M122.609 25.4576C124.207 25.4576 125.965 24.7185 126.605 23.6838V25.1028H130.094V15.2882C130.094 11.7111 127.724 9.37573 124.261 9.37573C121.277 9.37573 119.119 10.9721 118.32 13.9579H121.676C122.049 13.1301 122.822 12.5093 124.074 12.5093C125.565 12.5093 126.471 13.5736 126.471 14.9926V17.0915C125.832 16.5002 124.606 15.7907 122.955 15.7907C119.626 15.7907 117.361 17.328 117.361 20.6685C117.361 23.6543 119.492 25.4576 122.609 25.4576ZM123.541 22.797C122.023 22.797 120.877 21.9692 120.877 20.5502C120.877 19.1313 121.943 18.3626 123.647 18.3626C125.273 18.3626 126.471 19.1608 126.471 20.5207C126.471 21.8214 125.139 22.797 123.541 22.797Z" fill="#9BA8CD"/>
<path d="M136.864 25.1028H139.368V21.851H137.902C136.943 21.851 136.598 21.4371 136.598 20.432V12.9823H139.554V9.73054H136.598V5.53271H132.948V9.73054H130.977V12.9823H132.948V20.7276C132.948 23.4473 134.2 25.1028 136.864 25.1028Z" fill="#9BA8CD"/>
</svg>
