<svg width="145" height="36" viewBox="0 0 145 36" fill="none" xmlns="http://www.w3.org/2000/svg">
<path d="M58.6206 13.5627H63.3484C62.5597 7.9842 58.2076 4.09863 52.5437 4.09863C45.8422 4.09863 40.8135 9.56653 40.8135 18.7242C40.8135 27.7183 45.616 33.2968 52.6807 33.2968C59.0211 33.2968 63.5601 28.7709 63.5601 21.4444V18.031H53.1684V22.0547H59.0709C58.9962 26.1083 56.5576 28.6742 52.7056 28.6742C48.4178 28.6742 45.479 25.1087 45.479 18.669C45.479 12.2705 48.4676 8.71894 52.606 8.71894C55.6942 8.71894 57.807 10.55 58.6206 13.5627Z" fill="#9BA8CD"/>
<path d="M66.6862 32.9083H71.2127V11.6033H66.6862V32.9083ZM68.9692 8.21751C70.4074 8.21751 71.5821 6.99449 71.5821 5.49738C71.5821 4.00027 70.4074 2.76343 68.9692 2.76343C67.5309 2.76343 66.3438 3.98415 66.3438 5.49738C66.3438 7.01061 67.5101 8.21751 68.9609 8.21751H68.9692Z" fill="#9BA8CD"/>
<path d="M84.7668 11.6027H80.9771V6.48486H76.4506V11.6027H73.7256V15.4882H76.4506V27.3407C76.4257 31.3506 79.0532 33.3291 82.4527 33.2116C83.3582 33.1918 84.2563 33.0232 85.1176 32.7118L84.3538 28.7825C83.9213 28.9071 83.4765 28.973 83.0297 28.9783C81.8903 28.9783 80.9771 28.5337 80.9771 26.5069V15.4767H84.7668V11.6027Z" fill="#9BA8CD"/>
<path d="M88.2705 32.9076H104.189V28.5913H92.9111V4.4856H88.2705V32.9076Z" fill="#9BA8CD"/>
<path d="M112.859 33.3383C115.873 33.3383 117.672 31.7698 118.498 29.9802H118.648V32.9076H123.006V18.6413C123.006 13.0076 118.868 11.3147 115.203 11.3147C111.164 11.3147 108.063 13.3116 107.063 17.1972L111.29 17.8651C111.739 16.4072 113.015 15.1588 115.234 15.1588C117.336 15.1588 118.486 16.3519 118.486 18.4478V18.5308C118.486 19.9726 117.122 20.044 113.733 20.4448C110.008 20.8893 106.444 22.1238 106.444 26.9261C106.432 31.118 109.194 33.3383 112.859 33.3383ZM114.348 29.6531C112.459 29.6531 111.108 28.695 111.108 26.8501C111.108 24.92 112.621 24.1161 114.636 23.796C115.825 23.6163 118.202 23.2824 118.787 22.7572V25.2677C118.799 27.6332 117.073 29.6462 114.348 29.6462V29.6531Z" fill="#9BA8CD"/>
<path d="M126.339 32.9076H130.791V29.5495H131.053C131.767 31.1042 133.255 33.283 136.557 33.283C141.083 33.283 144.472 29.2984 144.472 22.2782C144.472 15.1726 140.984 11.3147 136.544 11.3147C133.155 11.3147 131.742 13.5765 131.053 15.1174H130.862V4.4856H126.339V32.9076ZM130.779 22.2505C130.779 18.1047 132.379 15.4352 135.293 15.4352C138.306 15.4352 139.859 18.2797 139.859 22.2505C139.859 26.2213 138.283 29.1602 135.293 29.1602C132.404 29.1602 130.779 26.3848 130.779 22.2505Z" fill="#9BA8CD"/>
<path d="M32.2793 14.2218L32.2357 14.0928L27.8358 1.3559C27.7467 1.10581 27.5882 0.893653 27.3833 0.750147C27.2304 0.641519 27.0567 0.574156 26.8761 0.553457C26.6955 0.532756 26.5131 0.559296 26.3433 0.630947C26.1738 0.702601 26.0215 0.817372 25.899 0.966065C25.7766 1.11476 25.6871 1.29323 25.6379 1.48718L22.668 11.5777H10.6409L7.67099 1.48718C7.62145 1.29352 7.53184 1.11538 7.40926 0.966974C7.28669 0.818567 7.13456 0.703999 6.965 0.632405C6.79546 0.560811 6.61319 0.534173 6.43272 0.554615C6.25226 0.575059 6.07859 0.642014 5.92557 0.750147C5.72066 0.893653 5.56218 1.10581 5.47313 1.3559L1.07532 14.0951L1.02966 14.2218C0.396506 16.0582 0.318503 18.0733 0.807414 19.9632C1.29632 21.853 2.32564 23.5154 3.74017 24.6992L3.75677 24.7131L3.79411 24.7453L10.4873 30.3122L13.808 33.0969L15.8253 34.7897C16.062 34.9883 16.3506 35.0956 16.6472 35.0956C16.9438 35.0956 17.2324 34.9883 17.469 34.7897L19.4864 33.0969L22.807 30.3122L29.548 24.7131L29.5667 24.6969C30.9811 23.5135 32.0105 21.8517 32.4999 19.9623C32.989 18.0729 32.9116 16.0582 32.2793 14.2218Z" fill="#9BA8CD"/>
<path d="M32.2793 14.2218L32.2357 14.0928C30.092 14.5809 28.072 15.5893 26.3207 17.0455L16.6597 25.1529L22.8112 30.3122L29.5522 24.713L29.5708 24.6969C30.9846 23.5128 32.0132 21.8508 32.5018 19.9614C32.9901 18.072 32.9121 16.0576 32.2793 14.2218Z" fill="#9BA8CD"/>
<path d="M10.4868 30.3132L13.8075 33.0984L15.8248 34.7916C16.0615 34.9902 16.35 35.0976 16.6467 35.0976C16.9433 35.0976 17.2318 34.9902 17.4685 34.7916L19.4858 33.0984L22.8065 30.3132L16.655 25.1528L10.4868 30.3132Z" fill="#9BA8CD"/>
<path d="M6.98818 17.0457C5.23748 15.5902 3.21827 14.5826 1.07532 14.0952L1.02966 14.2219C0.396506 16.0583 0.318503 18.0734 0.807414 19.9632C1.29632 21.8531 2.32564 23.5154 3.74017 24.6993L3.75678 24.7131L3.79411 24.7453L10.4873 30.3123L16.6431 25.153L6.98818 17.0457Z" fill="#9BA8CD"/>
</svg>
