<svg width="105" height="36" viewBox="0 0 105 36" fill="none" xmlns="http://www.w3.org/2000/svg">
<path d="M31.7179 16.116H22.1679L30.4383 10.818L28.7982 7.66473L20.5268 12.9627L25.3008 3.78687L22.4594 1.96677L17.6844 11.1403V0.546631H14.4022V11.1415L9.62718 1.96677L6.78475 3.78687L11.5587 12.9604L3.28943 7.66473L1.64832 10.818L9.91864 16.116H0.368652V19.7574H9.91759L1.64832 25.0554L3.28839 28.2087L11.5597 22.9107L6.78475 32.0865L9.62614 33.9066L14.4022 24.7319V35.3256H17.6844V24.5047L22.5471 33.8487L25.212 32.1422L20.3482 22.7959L28.7961 28.2075L30.4372 25.0542L22.1679 19.7562H31.7169V16.116H31.7179ZM16.0433 22.8863C15.4574 22.8864 14.8772 22.7585 14.3358 22.5097C13.7945 22.2609 13.3026 21.8963 12.8883 21.4365C12.474 20.9768 12.1453 20.431 11.921 19.8303C11.6967 19.2296 11.5813 18.5858 11.5812 17.9355C11.5811 17.2853 11.6964 16.6414 11.9206 16.0407C12.1447 15.4399 12.4733 14.894 12.8876 14.4342C13.3018 13.9744 13.7936 13.6096 14.3349 13.3607C14.8762 13.1118 15.4563 12.9837 16.0422 12.9836C17.2255 12.9835 18.3604 13.5049 19.1972 14.4334C20.0341 15.3619 20.5043 16.6212 20.5044 17.9344C20.5045 19.2475 20.0346 20.507 19.198 21.4357C18.3613 22.3644 17.2265 22.8862 16.0433 22.8863Z" fill="#9BA8CD"/>
<path d="M40.1782 30.6571V5.21509H44.386V30.6571H40.1782ZM80.5353 13.3673H84.553V15.4772C85.4075 13.7904 87.4016 12.8757 89.1096 12.8757C91.2302 12.8757 92.9382 13.8959 93.729 15.7566C94.9616 13.6467 96.608 12.8757 98.6648 12.8757C101.544 12.8757 104.295 14.8083 104.295 19.4466V30.6571H100.215V20.3961C100.215 18.5331 99.3919 17.1269 97.4614 17.1269C95.6573 17.1269 94.5814 18.6746 94.5814 20.5375V30.6582H90.407V20.3961C90.407 18.5331 89.5525 17.1269 87.6534 17.1269C85.818 17.1269 84.742 18.6398 84.742 20.5375V30.6582H80.5353V13.3673ZM53.8952 31.1579C49.1547 31.1579 45.7221 27.2545 45.7221 22.0122C45.7221 16.8533 49.1443 12.8583 53.8952 12.8583C58.6692 12.8583 62.0684 16.8904 62.0684 22.0122C62.0684 27.2174 58.6337 31.1579 53.8952 31.1579ZM53.8952 17.0898C52.7194 17.0916 51.5922 17.611 50.761 18.5342C49.9299 19.4572 49.4627 20.7084 49.4618 22.0133C49.4627 23.3182 49.9299 24.5695 50.761 25.4925C51.5922 26.4157 52.7194 26.935 53.8952 26.9369C55.0708 26.9347 56.1978 26.4152 57.0287 25.4922C57.8596 24.5691 58.3267 23.318 58.3276 22.0133C58.3267 20.7087 57.8596 19.4575 57.0287 18.5345C56.1978 17.6115 55.0708 17.092 53.8952 17.0898ZM71.0553 31.1579C66.3148 31.1579 62.8822 27.2545 62.8822 22.0122C62.8822 16.8533 66.3044 12.8583 71.0553 12.8583C75.8293 12.8583 79.2285 16.8904 79.2285 22.0122C79.2285 27.2174 75.7917 31.1579 71.0553 31.1579ZM71.0553 17.0307C69.866 17.0329 68.7259 17.5584 67.8853 18.492C67.0446 19.4255 66.5718 20.6912 66.5707 22.011C66.5718 23.3309 67.0446 24.5965 67.8853 25.5301C68.7259 26.4637 69.866 26.9892 71.0553 26.9914C72.2446 26.9892 73.3846 26.4637 74.2253 25.5301C75.0661 24.5965 75.5388 23.3309 75.5399 22.011C75.5388 20.6912 75.0661 19.4255 74.2253 18.492C73.3846 17.5584 72.2446 17.0329 71.0553 17.0307Z" fill="#9BA8CD"/>
</svg>
