<svg width="108" height="35" viewBox="0 0 108 35" fill="none" xmlns="http://www.w3.org/2000/svg">
<path d="M11.918 6.55151V16.0596H4.04687V6.55151H0.3125V29.2487H4.04788V20.0491H11.917V29.2487H15.6534V6.55151H11.918ZM27.6096 21.9126C27.6096 22.8224 27.284 23.6948 26.7043 24.3381C26.1247 24.9814 25.3385 25.3428 24.5187 25.3428C23.6989 25.3428 22.9128 24.9814 22.3331 24.3381C21.7534 23.6948 21.4278 22.8224 21.4278 21.9126V12.1902H17.8845V21.9126C17.8845 23.8633 18.5827 25.7341 19.8257 27.1135C21.0686 28.4929 22.7544 29.2678 24.5121 29.2678C26.2699 29.2678 27.9557 28.4929 29.1986 27.1135C30.4415 25.7341 31.1398 23.8633 31.1398 21.9126V12.1902H27.6096V21.9126ZM53.8645 13.1921C53.8645 11.1984 55.0523 10.5668 56.3534 10.5668C57.4027 10.5668 58.7877 11.4531 59.6945 12.5279L62.0146 9.49202C60.8561 7.75307 58.5067 6.55151 56.5829 6.55151C52.7383 6.55151 49.9582 9.04999 49.9582 13.1921C49.9582 20.8771 58.4217 18.4381 58.4217 22.7394C58.4217 24.0655 57.2612 25.2368 55.9328 25.2368C53.8372 25.2368 53.1578 24.1003 52.1954 22.8976L49.6196 25.8696C51.2674 28.1134 53.2994 29.2532 55.7327 29.2532C59.3852 29.2532 62.3229 26.7244 62.3229 22.7709C62.3229 14.2399 53.8584 16.891 53.8584 13.1921M106.225 25.6227C104.131 25.6227 103.535 24.6175 103.535 23.0783V16.2627H106.791V12.8095H103.535V8.25344L99.9426 10.0429V23.9253C99.9426 27.4761 102.151 29.2656 105.177 29.2656C105.652 29.2745 106.128 29.2319 106.595 29.1399L107.471 25.5588C107.076 25.5891 106.622 25.6194 106.225 25.6194M41.0974 12.3035C39.3425 12.3035 38.1172 12.8689 36.9324 14.158V6.68726H33.3841V20.5349C33.3841 25.7181 36.7606 29.27 40.5556 29.27C44.7651 29.27 48.4681 25.6553 48.4681 20.7885C48.4681 15.9822 45.0603 12.3069 41.0974 12.3069M41.0752 25.3064C40.5464 25.3064 40.0227 25.1908 39.5341 24.9662C39.0455 24.7416 38.6016 24.4124 38.2277 23.9974C37.8537 23.5824 37.5571 23.0897 37.3547 22.5475C37.1523 22.0053 37.0482 21.4242 37.0482 20.8373C37.0482 20.2504 37.1523 19.6692 37.3547 19.127C37.5571 18.5848 37.8537 18.0921 38.2277 17.6771C38.6016 17.2621 39.0455 16.9329 39.5341 16.7084C40.0227 16.4838 40.5464 16.3682 41.0752 16.3682C42.1432 16.3682 43.1675 16.839 43.9227 17.6771C44.678 18.5152 45.1022 19.652 45.1022 20.8373C45.1022 22.0225 44.678 23.1593 43.9227 23.9974C43.1675 24.8355 42.1432 25.3064 41.0752 25.3064ZM79.6341 20.582C79.6341 15.7062 75.9391 12.1004 71.7215 12.1004C67.9275 12.1004 64.55 15.6513 64.55 20.8356V34.6911H68.0984V27.2102C69.2812 28.4971 70.5084 29.0647 72.2614 29.0647C76.2242 29.0647 79.6331 25.3894 79.6331 20.582M76.2738 20.5327C76.2738 21.7179 75.8495 22.8547 75.0943 23.6928C74.339 24.5309 73.3148 25.0018 72.2467 25.0018C71.1787 25.0018 70.1544 24.5309 69.3992 23.6928C68.6439 22.8547 68.2197 21.7179 68.2197 20.5327C68.2197 19.3474 68.6439 18.2107 69.3992 17.3725C70.1544 16.5344 71.1787 16.0636 72.2467 16.0636C73.3148 16.0636 74.339 16.5344 75.0943 17.3725C75.8495 18.2107 76.2738 19.3474 76.2738 20.5327Z" fill="#9BA8CD"/>
<path d="M91.0996 11.9098V7.95284C91.5707 7.70845 91.9697 7.32058 92.2499 6.83437C92.5302 6.34815 92.6803 5.7836 92.6827 5.20642V5.11554C92.6827 3.43269 91.4534 2.06846 89.937 2.06846H89.8551C89.1269 2.06846 88.4285 2.38949 87.9136 2.96093C87.3987 3.53237 87.1094 4.30741 87.1094 5.11554V5.20642C87.1118 5.7836 87.2619 6.34815 87.5421 6.83437C87.8224 7.32058 88.2214 7.70845 88.6925 7.95284V11.9098C87.3383 12.1399 86.063 12.763 84.9956 13.716L75.2168 5.26364C75.2866 4.98428 75.323 4.69707 75.327 4.40875C75.3282 3.72966 75.1479 3.06544 74.8089 2.5001C74.4699 1.93475 73.9874 1.49369 73.4225 1.23269C72.8576 0.971684 72.2356 0.902477 71.6353 1.03382C71.0349 1.16516 70.4832 1.49114 70.0498 1.97054C69.6164 2.44994 69.3208 3.06121 69.2005 3.72704C69.0802 4.39287 69.1405 5.08334 69.3739 5.71111C69.6072 6.33888 70.0031 6.87575 70.5114 7.25382C71.0197 7.63188 71.6176 7.83415 72.2295 7.83504C72.7649 7.83224 73.2902 7.67363 73.753 7.37506L83.3821 15.6906C82.5171 17.1408 82.0658 18.8467 82.0871 20.5857C82.1084 22.3247 82.6012 24.0163 83.5014 25.4399L80.5727 28.6912C80.336 28.6072 80.0893 28.5626 79.8408 28.5588C79.3385 28.5593 78.8476 28.7249 78.4302 29.0349C78.0127 29.3449 77.6874 29.7852 77.4954 30.3003C77.3033 30.8154 77.2532 31.382 77.3513 31.9287C77.4494 32.4754 77.6913 32.9776 78.0465 33.3717C78.4016 33.7659 78.8541 34.0344 79.3467 34.1432C79.8393 34.2521 80.35 34.1964 80.8141 33.9833C81.2782 33.7702 81.675 33.4092 81.9543 32.9459C82.2336 32.4826 82.3829 31.9378 82.3833 31.3804C82.3801 31.1046 82.3399 30.8308 82.264 30.5681L85.1613 27.3517C86.1061 28.1589 87.2049 28.7154 88.3734 28.9785C89.542 29.2417 90.7493 29.2045 91.9029 28.8699C93.0565 28.5353 94.1257 27.912 95.0288 27.0479C95.9318 26.1839 96.6446 25.1018 97.1127 23.8848C97.5807 22.6678 97.7915 21.348 97.7289 20.0266C97.6663 18.7051 97.332 17.4172 96.7516 16.2613C96.1711 15.1054 95.36 14.1123 94.3803 13.358C93.4007 12.6037 92.2784 12.1084 91.0996 11.9098ZM89.8986 24.9239C89.3631 24.9402 88.8301 24.8373 88.3311 24.6212C87.8321 24.4051 87.3772 24.0801 86.9933 23.6656C86.6093 23.2511 86.3041 22.7554 86.0957 22.2077C85.8874 21.6601 85.78 21.0717 85.78 20.4772C85.78 19.8827 85.8874 19.2943 86.0957 18.7467C86.3041 18.199 86.6093 17.7033 86.9933 17.2888C87.3772 16.8743 87.8321 16.5493 88.3311 16.3332C88.8301 16.1171 89.3631 16.0142 89.8986 16.0305C90.9364 16.0709 91.9196 16.5566 92.6411 17.3854C93.3626 18.2142 93.7661 19.3215 93.7666 20.4739C93.7671 21.6263 93.3646 22.734 92.6439 23.5637C91.9231 24.3933 90.9404 24.8801 89.9026 24.9216" fill="#9BA8CD"/>
</svg>
