<svg width="463" height="235" viewBox="0 0 463 235" fill="none" xmlns="http://www.w3.org/2000/svg">
<path d="M237.885 161.624L190.915 134.499C187.573 132.575 187.994 129.197 191.853 126.973L236.948 100.93C240.807 98.7058 246.638 98.4654 249.98 100.389L296.95 127.514C300.292 129.437 299.872 132.816 296.012 135.04L250.917 161.083C247.058 163.307 241.228 163.548 237.885 161.624Z" fill="#0C0F38"/>
<g opacity="0.4">
<path d="M299.198 96.8898H275.899L249.968 81.9208C246.626 79.9971 240.795 80.2376 236.936 82.4619L211.942 96.8898H188.655V112.532C188.559 113.843 189.292 115.093 190.891 116.019L237.861 143.143C241.204 145.067 247.034 144.827 250.893 142.602L295.988 116.56C297.996 115.406 299.054 113.939 299.162 112.532H299.174V96.8898H299.198Z" fill="url(#paint0_linear_6326_143)"/>
<path d="M190.146 113.603V97.9602H213.432L238.426 83.5323C242.285 81.308 248.116 81.0675 251.458 82.9912L277.39 97.9602H299.21V96.8781H275.911L249.98 81.9091C246.637 79.9854 240.807 80.2259 236.948 82.4502L211.954 96.8781H188.667V112.52C188.571 113.831 189.304 115.081 190.903 116.007L191.167 116.163C190.41 115.394 190.073 114.504 190.134 113.603H190.146Z" fill="#D4088C"/>
<path d="M237.873 127.502L190.903 100.377C187.561 98.4534 187.981 95.0749 191.841 92.8505L236.936 66.8081C240.795 64.5838 246.625 64.3433 249.968 66.267L296.938 93.3916C300.28 95.3153 299.859 98.6939 296 100.918L250.905 126.961C247.046 129.185 241.215 129.425 237.873 127.502Z" fill="url(#paint1_linear_6326_143)"/>
<path d="M296.938 93.3915L249.968 66.2669C248.236 65.269 245.844 64.8602 243.392 64.9924C245.171 65.1006 246.842 65.5214 248.128 66.2669L295.099 93.3915C298.441 95.3152 298.02 98.6937 294.161 100.918L249.066 126.961C247.203 128.031 244.894 128.644 242.61 128.776C245.435 128.944 248.537 128.331 250.905 126.961L296 100.918C299.859 98.6937 300.28 95.3272 296.938 93.3915Z" fill="#3885F1"/>
<path d="M243.632 121.045C241.985 121.045 240.398 120.708 239.22 120.035L204.248 99.8479C203.033 99.1505 202.372 98.1646 202.372 97.0705C202.372 95.784 203.31 94.4975 204.945 93.5597L238.523 74.1781C241.492 72.4588 246.024 72.2784 248.621 73.7814L283.594 93.9685C284.808 94.6658 285.469 95.6517 285.469 96.7459C285.469 98.0324 284.531 99.3188 282.896 100.257L249.318 119.638C247.695 120.576 245.616 121.057 243.632 121.057V121.045ZM244.209 73.5289C242.37 73.5289 240.434 73.9737 238.919 74.8514L205.342 94.233C203.959 95.0265 203.166 96.0605 203.166 97.0585C203.166 97.852 203.695 98.5975 204.644 99.1385L239.617 119.326C241.985 120.696 246.157 120.516 248.91 118.929L282.488 99.5473C283.87 98.7537 284.664 97.7197 284.664 96.7218C284.664 95.9283 284.135 95.1828 283.185 94.6418L248.212 74.4547C247.142 73.8415 245.712 73.5409 244.197 73.5409L244.209 73.5289Z" fill="#480689"/>
<path d="M239.989 127.501L193.018 100.377C189.676 98.453 190.097 95.0745 193.956 92.8502L239.051 66.8077C240.878 65.7497 243.163 65.1485 245.399 65.0042C242.538 64.7998 239.352 65.413 236.947 66.8077L191.852 92.8502C187.993 95.0745 187.572 98.441 190.915 100.377L237.885 127.501C239.64 128.511 242.081 128.92 244.569 128.764C242.85 128.644 241.251 128.223 240.001 127.501H239.989Z" fill="#D4088C"/>
</g>
<g opacity="0.5">
<path d="M299.198 75.3444H275.899L249.968 60.3754C246.626 58.4517 240.795 58.6922 236.936 60.9165L211.942 75.3444H188.655V90.9868C188.559 92.2973 189.292 93.5477 190.891 94.4735L237.861 121.598C241.204 123.522 247.034 123.281 250.893 121.057L295.988 95.0146C297.996 93.8603 299.054 92.3935 299.162 90.9868H299.174V75.3444H299.198Z" fill="url(#paint2_linear_6326_143)"/>
<path d="M190.146 92.0571V76.4148H213.432L238.426 61.9869C242.285 59.7625 248.116 59.5221 251.458 61.4458L277.39 76.4148H299.21V75.3327H275.911L249.98 60.3637C246.637 58.44 240.807 58.6805 236.948 60.9048L211.954 75.3327H188.667V90.975C188.571 92.2856 189.304 93.536 190.903 94.4618L191.167 94.6181C190.41 93.8486 190.073 92.9589 190.134 92.0571H190.146Z" fill="#D4088C"/>
<path d="M237.873 105.956L190.903 78.8317C187.561 76.908 187.981 73.5295 191.841 71.3051L236.936 45.2627C240.795 43.0384 246.625 42.7979 249.968 44.7216L296.938 71.8462C300.28 73.7699 299.859 77.1485 296 79.3728L250.905 105.415C247.046 107.64 241.215 107.88 237.873 105.956Z" fill="url(#paint3_linear_6326_143)"/>
<path d="M296.938 71.8578L249.968 44.7332C248.236 43.7353 245.844 43.3265 243.392 43.4587C245.171 43.5669 246.842 43.9878 248.128 44.7332L295.099 71.8578C298.441 73.7815 298.02 77.16 294.161 79.3843L249.066 105.427C247.203 106.497 244.894 107.11 242.61 107.242C245.435 107.411 248.537 106.797 250.905 105.427L296 79.3843C299.859 77.16 300.28 73.7935 296.938 71.8578Z" fill="#3885F1"/>
<path d="M243.632 99.4995C241.985 99.4995 240.398 99.1629 239.22 98.4896L204.248 78.3025C203.033 77.6051 202.372 76.6192 202.372 75.5251C202.372 74.2386 203.31 72.9521 204.945 72.0143L238.523 52.6327C241.504 50.9134 246.036 50.733 248.621 52.2359L283.594 72.4231C284.808 73.1204 285.469 74.1063 285.469 75.2004C285.469 76.4869 284.531 77.7734 282.896 78.7112L249.318 98.0928C247.695 99.0306 245.616 99.5116 243.632 99.5116V99.4995ZM239.617 97.7922C241.985 99.1629 246.157 98.9825 248.91 97.3954L282.488 78.0139C283.87 77.2204 284.664 76.1864 284.664 75.1884C284.664 74.3949 284.135 73.6494 283.185 73.1084L248.212 52.9213C245.844 51.5506 241.672 51.731 238.919 53.318L205.342 72.6996C203.959 73.4931 203.166 74.5271 203.166 75.5251C203.166 76.3186 203.695 77.0641 204.644 77.6051L239.617 97.7922Z" fill="#480689"/>
<path d="M239.989 105.956L193.018 78.8314C189.676 76.9076 190.097 73.5291 193.956 71.3048L239.051 45.2623C240.878 44.2042 243.163 43.6031 245.399 43.4588C242.538 43.2544 239.352 43.8676 236.947 45.2623L191.852 71.3048C187.993 73.5291 187.572 76.8956 190.915 78.8314L237.885 105.956C239.64 106.966 242.081 107.375 244.569 107.218C242.85 107.098 241.251 106.677 240.001 105.956H239.989Z" fill="#D4088C"/>
</g>
<g opacity="0.7">
<path d="M299.198 53.7985H275.899L249.968 38.8295C246.626 36.9058 240.795 37.1463 236.936 39.3706L211.942 53.7985H188.655V69.4408C188.559 70.7514 189.292 72.0018 190.891 72.9276L237.861 100.052C241.204 101.976 247.034 101.735 250.893 99.5111L295.988 73.4687C297.996 72.3144 299.054 70.8476 299.162 69.4408H299.174V53.7985H299.198Z" fill="url(#paint4_linear_6326_143)"/>
<path d="M190.146 70.523V54.8806H213.432L238.426 40.4527C242.285 38.2284 248.116 37.9879 251.458 39.9116L277.39 54.8806H299.21V53.7985H275.911L249.98 38.8295C246.637 36.9058 240.807 37.1463 236.948 39.3706L211.954 53.7985H188.667V69.4408C188.571 70.7514 189.304 72.0018 190.903 72.9276L191.167 73.0839C190.41 72.3144 190.073 71.4247 190.134 70.523H190.146Z" fill="#D4088C"/>
<path d="M237.873 84.4104L190.903 57.2858C187.561 55.3621 187.981 51.9836 191.841 49.7592L236.936 23.7168C240.795 21.4925 246.625 21.252 249.968 23.1757L296.938 50.3003C300.28 52.224 299.859 55.6026 296 57.8269L250.905 83.8693C247.046 86.0936 241.215 86.3341 237.873 84.4104Z" fill="url(#paint5_linear_6326_143)"/>
<path d="M296.938 50.3119L249.968 23.1873C248.236 22.1894 245.844 21.7806 243.392 21.9128C245.171 22.021 246.842 22.4419 248.128 23.1873L295.099 50.3119C298.441 52.2356 298.02 55.6141 294.161 57.8385L249.066 83.8809C247.203 84.951 244.894 85.5642 242.61 85.6964C245.435 85.8648 248.537 85.2516 250.905 83.8809L296 57.8385C299.859 55.6141 300.28 52.2476 296.938 50.3119Z" fill="#3885F1"/>
<path d="M243.632 77.9536C241.973 77.9536 240.398 77.617 239.22 76.9437L204.248 56.7566C203.033 56.0592 202.372 55.0733 202.372 53.9792C202.372 52.6927 203.31 51.4062 204.945 50.4684L238.523 31.0868C241.492 29.3675 246.024 29.1871 248.621 30.69L283.594 50.8772C284.808 51.5745 285.469 52.5604 285.469 53.6545C285.469 54.941 284.531 56.2275 282.896 57.1653L249.318 76.5469C247.695 77.4847 245.616 77.9657 243.632 77.9657V77.9536ZM239.617 76.2463C241.985 77.617 246.157 77.4366 248.91 75.8495L282.488 56.468C283.87 55.6745 284.664 54.6404 284.664 53.6425C284.664 52.849 284.135 52.1035 283.185 51.5625L248.212 31.3754C245.844 30.0047 241.672 30.1851 238.919 31.7722L205.342 51.1537C203.959 51.9472 203.166 52.9812 203.166 53.9792C203.166 54.7727 203.695 55.5182 204.644 56.0592L239.617 76.2463Z" fill="#480689"/>
<path d="M239.989 84.41L193.019 57.2854C189.677 55.3617 190.097 51.9832 193.956 49.7589L239.051 23.7164C240.879 22.6584 243.163 22.0572 245.399 21.9129C242.538 21.7085 239.352 22.3217 236.948 23.7164L191.853 49.7589C187.993 51.9832 187.573 55.3497 190.915 57.2854L237.885 84.41C239.64 85.42 242.081 85.8288 244.57 85.6725C242.85 85.5522 241.251 85.1314 240.001 84.41H239.989Z" fill="#D4088C"/>
</g>
<path d="M299.198 32.2648H275.899L249.968 17.2958C246.626 15.3721 240.795 15.6126 236.936 17.8369L211.942 32.2648H188.655V47.9072C188.559 49.2177 189.292 50.4681 190.891 51.3939L237.861 78.5185C241.204 80.4422 247.034 80.2017 250.893 77.9774L295.988 51.935C297.996 50.7807 299.054 49.3139 299.162 47.9072H299.174V32.2648H299.198Z" fill="url(#paint6_linear_6326_143)"/>
<path d="M190.146 48.9775V33.3352H213.432L238.426 18.9073C242.285 16.683 248.116 16.4425 251.458 18.3662L277.39 33.3352H299.21V32.2531H275.911L249.98 17.2841C246.637 15.3604 240.807 15.6009 236.948 17.8252L211.954 32.2531H188.667V47.8954C188.571 49.206 189.304 50.4564 190.903 51.3822L191.167 51.5385C190.41 50.769 190.073 49.8793 190.134 48.9775H190.146Z" fill="#D4088C"/>
<path d="M237.873 62.8767L190.903 35.7521C187.561 33.8284 187.982 30.4499 191.841 28.2255L236.936 2.18308C240.795 -0.041227 246.626 -0.281689 249.968 1.64204L296.938 28.7666C300.28 30.6903 299.86 34.0689 296 36.2932L250.905 62.3356C247.046 64.56 241.216 64.8004 237.873 62.8767Z" fill="url(#paint7_linear_6326_143)"/>
<path d="M296.938 28.7665L249.968 1.6419C248.236 0.643963 245.844 0.235165 243.392 0.367421C245.171 0.475631 246.842 0.896453 248.128 1.6419L295.099 28.7665C298.441 30.6902 298.02 34.0687 294.161 36.293L249.066 62.3355C247.203 63.4056 244.894 64.0188 242.61 64.151C245.435 64.3193 248.537 63.7062 250.905 62.3355L296 36.293C299.859 34.0687 300.28 30.7022 296.938 28.7665Z" fill="#3885F1"/>
<path d="M243.632 56.4082C241.985 56.4082 240.398 56.0716 239.22 55.3983L204.248 35.2112C203.033 34.5138 202.372 33.5279 202.372 32.4338C202.372 31.1473 203.31 29.8608 204.945 28.923L238.523 9.5414C241.492 7.82207 246.024 7.64172 248.621 9.14463L283.594 29.3317C284.808 30.0291 285.469 31.015 285.469 32.1091C285.469 33.3956 284.531 34.6821 282.896 35.6199L249.318 55.0015C247.695 55.9393 245.616 56.4202 243.632 56.4202V56.4082ZM239.617 54.7009C241.985 56.0716 246.157 55.8912 248.91 54.3041L282.488 34.9226C283.87 34.129 284.664 33.095 284.664 32.0971C284.664 31.3036 284.135 30.5581 283.185 30.0171L248.212 9.82996C245.844 8.45931 241.672 8.63966 238.919 10.2267L205.342 29.6083C203.959 30.4018 203.166 31.4358 203.166 32.4338C203.166 33.2273 203.695 33.9727 204.644 34.5138L239.617 54.7009Z" fill="url(#paint8_linear_6326_143)"/>
<path d="M239.989 62.8763L193.019 35.7518C189.677 33.828 190.097 30.4495 193.956 28.2252L239.051 2.18271C240.879 1.12466 243.163 0.523495 245.399 0.379215C242.538 0.174819 239.352 0.788007 236.948 2.18271L191.853 28.2252C187.993 30.4495 187.573 33.816 190.915 35.7518L237.885 62.8763C239.64 63.8863 242.081 64.2951 244.57 64.1388C242.85 64.0185 241.251 63.5977 240.001 62.8763H239.989Z" fill="#3885F1"/>
<g opacity="0.4">
<path d="M374.601 144.046H351.302L325.371 129.077C322.028 127.153 316.198 127.394 312.339 129.618L287.345 144.046H264.058V159.688C263.961 160.999 264.695 162.249 266.294 163.175L313.264 190.3C316.606 192.223 322.437 191.983 326.296 189.759L371.391 163.716C373.399 162.562 374.457 161.095 374.565 159.688H374.577V144.046H374.601Z" fill="url(#paint9_linear_6326_143)"/>
<path d="M265.549 160.759V145.116H288.835L313.829 130.689C317.689 128.464 323.519 128.224 326.861 130.147L352.793 145.116H374.613V144.034H351.314L325.383 129.065C322.041 127.142 316.21 127.382 312.351 129.606L287.357 144.034H264.07V159.677C263.974 160.987 264.707 162.238 266.306 163.163L266.57 163.32C265.813 162.55 265.476 161.661 265.537 160.759H265.549Z" fill="#D4088C"/>
<path d="M313.276 174.657L266.306 147.533C262.964 145.609 263.385 142.231 267.244 140.006L312.339 113.964C316.198 111.74 322.028 111.499 325.371 113.423L372.341 140.547C375.683 142.471 375.262 145.85 371.403 148.074L326.308 174.116C322.449 176.341 316.618 176.581 313.276 174.657Z" fill="url(#paint10_linear_6326_143)"/>
<path d="M372.341 140.548L325.371 113.423C323.64 112.425 321.247 112.016 318.795 112.149C320.574 112.257 322.245 112.678 323.531 113.423L370.502 140.548C373.844 142.471 373.423 145.85 369.564 148.074L324.469 174.117C322.606 175.187 320.297 175.8 318.013 175.932C320.838 176.101 323.94 175.487 326.308 174.117L371.403 148.074C375.263 145.85 375.683 142.483 372.341 140.548Z" fill="#3885F1"/>
<path d="M319.035 168.201C317.388 168.201 315.801 167.865 314.623 167.191L279.651 147.004C278.436 146.307 277.775 145.321 277.775 144.227C277.775 142.94 278.713 141.654 280.348 140.716L313.926 121.334C316.895 119.615 321.427 119.435 324.024 120.938L358.997 141.125C360.211 141.822 360.872 142.808 360.872 143.902C360.872 145.189 359.934 146.475 358.299 147.413L324.722 166.794C323.099 167.732 321.019 168.213 319.035 168.213V168.201ZM319.612 120.685C317.773 120.685 315.837 121.13 314.322 122.008L280.745 141.389C279.362 142.183 278.569 143.217 278.569 144.215C278.569 145.008 279.098 145.754 280.047 146.295L315.02 166.482C317.388 167.853 321.56 167.672 324.313 166.085L357.891 146.704C359.273 145.91 360.067 144.876 360.067 143.878C360.067 143.085 359.538 142.339 358.588 141.798L323.616 121.611C322.546 120.998 321.115 120.697 319.6 120.697L319.612 120.685Z" fill="#480689"/>
<path d="M315.392 174.658L268.421 147.533C265.079 145.609 265.5 142.231 269.359 140.006L314.454 113.964C316.282 112.906 318.566 112.305 320.802 112.16C317.941 111.956 314.755 112.569 312.35 113.964L267.255 140.006C263.396 142.231 262.975 145.597 266.318 147.533L313.288 174.658C315.043 175.667 317.484 176.076 319.972 175.92C318.253 175.8 316.654 175.379 315.404 174.658H315.392Z" fill="#D4088C"/>
</g>
<g opacity="0.5">
<path d="M374.601 122.5H351.302L325.371 107.531C322.028 105.607 316.198 105.848 312.339 108.072L287.345 122.5H264.058V138.143C263.961 139.453 264.695 140.703 266.294 141.629L313.264 168.754C316.606 170.678 322.437 170.437 326.296 168.213L371.391 142.17C373.399 141.016 374.457 139.549 374.565 138.143H374.577V122.5H374.601Z" fill="url(#paint11_linear_6326_143)"/>
<path d="M265.549 139.212V123.57H288.835L313.829 109.142C317.689 106.918 323.519 106.677 326.861 108.601L352.793 123.57H374.613V122.488H351.314L325.383 107.519C322.041 105.595 316.21 105.836 312.351 108.06L287.357 122.488H264.07V138.13C263.974 139.441 264.707 140.691 266.306 141.617L266.57 141.773C265.813 141.004 265.476 140.114 265.537 139.212H265.549Z" fill="#D4088C"/>
<path d="M313.276 153.112L266.306 125.987C262.964 124.064 263.385 120.685 267.244 118.461L312.339 92.4184C316.198 90.1941 322.028 89.9537 325.371 91.8774L372.341 119.002C375.683 120.926 375.262 124.304 371.403 126.529L326.308 152.571C322.449 154.795 316.618 155.036 313.276 153.112Z" fill="url(#paint12_linear_6326_143)"/>
<path d="M372.341 119.013L325.371 91.8885C323.64 90.8906 321.247 90.4817 318.795 90.614C320.574 90.7222 322.245 91.143 323.531 91.8885L370.502 119.013C373.844 120.937 373.423 124.315 369.564 126.54L324.469 152.582C322.606 153.652 320.297 154.265 318.013 154.398C320.838 154.566 323.94 153.953 326.308 152.582L371.403 126.54C375.263 124.315 375.683 120.949 372.341 119.013Z" fill="#3885F1"/>
<path d="M319.035 146.655C317.388 146.655 315.801 146.318 314.623 145.645L279.651 125.458C278.436 124.76 277.775 123.774 277.775 122.68C277.775 121.394 278.713 120.107 280.348 119.17L313.926 99.788C316.907 98.0687 321.427 97.8883 324.024 99.3912L358.997 119.578C360.211 120.276 360.872 121.262 360.872 122.356C360.872 123.642 359.934 124.929 358.299 125.867L324.722 145.248C323.099 146.186 321.019 146.667 319.035 146.667V146.655ZM315.02 144.947C317.388 146.318 321.56 146.138 324.313 144.551L357.891 125.169C359.273 124.376 360.067 123.342 360.067 122.344C360.067 121.55 359.538 120.805 358.588 120.264L323.616 100.077C321.247 98.7059 317.075 98.8862 314.322 100.473L280.745 119.855C279.362 120.648 278.569 121.682 278.569 122.68C278.569 123.474 279.098 124.219 280.047 124.76L315.02 144.947Z" fill="#480689"/>
<path d="M315.392 153.112L268.421 125.987C265.079 124.063 265.5 120.685 269.359 118.461L314.454 92.4181C316.282 91.36 318.566 90.7588 320.802 90.6146C317.941 90.4102 314.755 91.0234 312.35 92.4181L267.255 118.461C263.396 120.685 262.975 124.051 266.318 125.987L313.288 153.112C315.043 154.122 317.484 154.53 319.972 154.374C318.253 154.254 316.654 153.833 315.404 153.112H315.392Z" fill="#D4088C"/>
</g>
<g opacity="0.7">
<path d="M374.601 100.955H351.302L325.371 85.9863C322.028 84.0625 316.198 84.303 312.339 86.5273L287.345 100.955H264.058V116.598C263.961 117.908 264.695 119.159 266.294 120.084L313.264 147.209C316.606 149.133 322.437 148.892 326.296 146.668L371.391 120.625C373.399 119.471 374.457 118.004 374.565 116.598H374.577V100.955H374.601Z" fill="url(#paint13_linear_6326_143)"/>
<path d="M265.549 117.68V102.037H288.835L313.829 87.6094C317.689 85.3851 323.519 85.1446 326.861 87.0684L352.793 102.037H374.613V100.955H351.314L325.383 85.9863C322.041 84.0625 316.21 84.303 312.351 86.5273L287.357 100.955H264.07V116.598C263.974 117.908 264.707 119.159 266.306 120.084L266.57 120.241C265.813 119.471 265.476 118.581 265.537 117.68H265.549Z" fill="#D4088C"/>
<path d="M313.276 131.566L266.306 104.442C262.964 102.518 263.385 99.1393 267.244 96.915L312.339 70.8725C316.198 68.6482 322.028 68.4078 325.371 70.3315L372.341 97.456C375.683 99.3798 375.262 102.758 371.403 104.983L326.308 131.025C322.449 133.249 316.618 133.49 313.276 131.566Z" fill="url(#paint14_linear_6326_143)"/>
<path d="M372.341 97.4676L325.371 70.3431C323.64 69.3451 321.247 68.9363 318.795 69.0686C320.574 69.1768 322.245 69.5976 323.531 70.3431L370.502 97.4676C373.844 99.3914 373.423 102.77 369.564 104.994L324.469 131.037C322.606 132.107 320.297 132.72 318.013 132.852C320.838 133.021 323.94 132.407 326.308 131.037L371.403 104.994C375.263 102.77 375.683 99.4034 372.341 97.4676Z" fill="#3885F1"/>
<path d="M319.035 125.109C317.388 125.109 315.801 124.773 314.623 124.099L279.651 103.912C278.436 103.215 277.775 102.229 277.775 101.135C277.775 99.8484 278.713 98.5619 280.348 97.6241L313.926 78.2426C316.895 76.5232 321.427 76.3429 324.024 77.8458L358.997 98.0329C360.211 98.7303 360.872 99.7162 360.872 100.81C360.872 102.097 359.934 103.383 358.299 104.321L324.722 123.703C323.099 124.64 321.019 125.121 319.035 125.121V125.109ZM315.02 123.402C317.388 124.773 321.56 124.592 324.313 123.005L357.891 103.624C359.273 102.83 360.067 101.796 360.067 100.798C360.067 100.005 359.538 99.2593 358.588 98.7183L323.616 78.5311C321.247 77.1605 317.075 77.3408 314.322 78.9279L280.745 98.3095C279.362 99.103 278.569 100.137 278.569 101.135C278.569 101.928 279.098 102.674 280.047 103.215L315.02 123.402Z" fill="#480689"/>
<path d="M315.392 131.566L268.421 104.442C265.079 102.518 265.5 99.1394 269.359 96.9151L314.454 70.8727C316.282 69.8146 318.566 69.2134 320.802 69.0692C317.941 68.8648 314.755 69.4779 312.35 70.8727L267.255 96.9151C263.396 99.1394 262.975 102.506 266.318 104.442L313.288 131.566C315.043 132.576 317.484 132.985 319.972 132.829C318.253 132.708 316.654 132.288 315.404 131.566H315.392Z" fill="#D4088C"/>
</g>
<path d="M374.601 79.4206H351.302L325.371 64.4516C322.028 62.5279 316.198 62.7683 312.339 64.9927L287.345 79.4206H264.058V95.0629C263.961 96.3735 264.695 97.6239 266.294 98.5497L313.264 125.674C316.606 127.598 322.437 127.357 326.296 125.133L371.391 99.0907C373.399 97.9365 374.457 96.4697 374.565 95.0629H374.577V79.4206H374.601Z" fill="url(#paint15_linear_6326_143)"/>
<path d="M265.549 96.1333V80.491H288.835L313.829 66.063C317.689 63.8387 323.519 63.5983 326.861 65.522L352.793 80.491H374.613V79.4089H351.314L325.383 64.4399C322.041 62.5162 316.21 62.7566 312.351 64.9809L287.357 79.4089H264.07V95.0512C263.974 96.3617 264.707 97.6122 266.306 98.538L266.57 98.6943C265.813 97.9248 265.476 97.035 265.537 96.1333H265.549Z" fill="#D4088C"/>
<path d="M313.276 110.031L266.306 82.9069C262.963 80.9832 263.384 77.6046 267.243 75.3803L312.338 49.3379C316.197 47.1136 322.028 46.8731 325.37 48.7968L372.341 75.9214C375.683 77.8451 375.262 81.2237 371.403 83.448L326.308 109.49C322.449 111.715 316.618 111.955 313.276 110.031Z" fill="url(#paint16_linear_6326_143)"/>
<path d="M372.341 75.9222L325.371 48.7976C323.64 47.7997 321.247 47.3909 318.795 47.5232C320.574 47.6314 322.245 48.0522 323.531 48.7976L370.502 75.9222C373.844 77.8459 373.423 81.2245 369.564 83.4488L324.469 109.491C322.606 110.561 320.297 111.175 318.013 111.307C320.838 111.475 323.94 110.862 326.308 109.491L371.403 83.4488C375.263 81.2245 375.683 77.858 372.341 75.9222Z" fill="#3885F1"/>
<path d="M319.035 103.564C317.388 103.564 315.801 103.227 314.623 102.554L279.651 82.3669C278.436 81.6695 277.775 80.6836 277.775 79.5895C277.775 78.303 278.713 77.0165 280.348 76.0787L313.926 56.6972C316.907 54.9778 321.427 54.7975 324.024 56.3004L358.997 76.4875C360.211 77.1849 360.872 78.1708 360.872 79.2649C360.872 80.5514 359.934 81.8379 358.299 82.7757L324.722 102.157C323.099 103.095 321.019 103.576 319.035 103.576V103.564ZM315.02 101.857C317.388 103.227 321.56 103.047 324.313 101.46L357.891 82.0783C359.273 81.2848 360.067 80.2508 360.067 79.2529C360.067 78.4593 359.538 77.7139 358.588 77.1728L323.616 56.9857C321.247 55.6151 317.075 55.7954 314.322 57.3825L280.745 76.7641C279.362 77.5576 278.569 78.5916 278.569 79.5895C278.569 80.3831 279.098 81.1285 280.047 81.6696L315.02 101.857Z" fill="url(#paint17_linear_6326_143)"/>
<path d="M315.392 110.032L268.421 82.9075C265.079 80.9838 265.5 77.6052 269.359 75.3809L314.454 49.3385C316.281 48.2804 318.566 47.6793 320.802 47.535C317.94 47.3306 314.755 47.9438 312.35 49.3385L267.255 75.3809C263.396 77.6052 262.975 80.9718 266.317 82.9075L313.288 110.032C315.043 111.042 317.484 111.451 319.972 111.295C318.253 111.174 316.654 110.753 315.404 110.032H315.392Z" fill="#3885F1"/>
<path d="M327.655 118.737L367.388 95.7487C367.749 95.5443 368.049 94.9792 368.049 94.4862V92.6106C368.049 92.1296 367.749 91.9012 367.388 92.1176L327.655 115.106C327.294 115.311 326.994 115.876 326.994 116.369V118.244C326.994 118.725 327.294 118.954 327.655 118.737Z" fill="#3885F1"/>
<path d="M366.51 95.256C366.871 95.0516 367.172 94.4865 367.172 93.9935V92.2381L367.388 92.1179C367.749 91.9135 368.049 92.1299 368.049 92.6108V94.4865C368.049 94.9674 367.749 95.5325 367.388 95.7489L327.655 118.737C327.294 118.942 326.994 118.725 326.994 118.245V118.124L366.51 95.268V95.256Z" fill="#267FE5"/>
<g opacity="0.4">
<path d="M223.351 140.185H200.052L174.12 125.216C170.778 123.293 164.947 123.533 161.088 125.757L136.094 140.185H112.807V155.828C112.711 157.138 113.444 158.389 115.043 159.314L162.014 186.439C165.356 188.363 171.187 188.122 175.046 185.898L220.141 159.855C222.148 158.701 223.206 157.234 223.315 155.828H223.327V140.185H223.351Z" fill="url(#paint18_linear_6326_143)"/>
<path d="M114.298 156.898V141.256H137.585L162.579 126.828C166.438 124.603 172.269 124.363 175.611 126.287L201.542 141.256H223.363V140.174H200.064L174.132 125.205C170.79 123.281 164.959 123.521 161.1 125.746L136.106 140.174H112.819V155.816C112.723 157.126 113.456 158.377 115.055 159.303L115.32 159.459C114.562 158.689 114.226 157.8 114.286 156.898H114.298Z" fill="#D4088C"/>
<path d="M162.038 170.797L115.067 143.673C111.725 141.749 112.146 138.37 116.005 136.146L161.1 110.103C164.959 107.879 170.79 107.639 174.132 109.562L221.102 136.687C224.444 138.611 224.024 141.989 220.165 144.214L175.07 170.256C171.21 172.48 165.38 172.721 162.038 170.797Z" fill="url(#paint19_linear_6326_143)"/>
<path d="M221.09 136.687L174.12 109.562C172.389 108.564 169.996 108.156 167.544 108.288C169.323 108.396 170.994 108.817 172.281 109.562L219.251 136.687C222.593 138.611 222.172 141.989 218.313 144.213L173.218 170.256C171.355 171.326 169.047 171.939 166.762 172.071C169.588 172.24 172.689 171.627 175.058 170.256L220.153 144.213C224.012 141.989 224.433 138.623 221.09 136.687Z" fill="#3885F1"/>
<path d="M167.784 164.328C166.137 164.328 164.55 163.991 163.372 163.318L128.4 143.131C127.186 142.434 126.524 141.448 126.524 140.354C126.524 139.067 127.462 137.781 129.097 136.843L162.675 117.461C165.656 115.742 170.189 115.562 172.774 117.065L207.746 137.252C208.96 137.949 209.621 138.935 209.621 140.029C209.621 141.316 208.684 142.602 207.049 143.54L173.471 162.921C171.848 163.859 169.768 164.34 167.784 164.34V164.328ZM163.769 162.621C166.137 163.991 170.309 163.811 173.062 162.224L206.64 142.843C208.022 142.049 208.816 141.015 208.816 140.017C208.816 139.224 208.287 138.478 207.337 137.925L172.365 117.738C169.996 116.367 165.825 116.548 163.072 118.135L129.494 137.516C128.111 138.31 127.318 139.344 127.318 140.342C127.318 141.135 127.847 141.881 128.797 142.422L163.769 162.609V162.621Z" fill="#480689"/>
<path d="M164.141 170.797L117.171 143.672C113.829 141.748 114.25 138.37 118.109 136.146L163.204 110.103C165.031 109.045 167.315 108.444 169.551 108.3C166.69 108.095 163.504 108.708 161.1 110.103L116.005 136.146C112.146 138.37 111.725 141.736 115.067 143.672L162.038 170.797C163.793 171.807 166.233 172.215 168.722 172.059C167.003 171.939 165.404 171.518 164.153 170.797H164.141Z" fill="#D4088C"/>
</g>
<g opacity="0.5">
<path d="M223.351 118.64H200.052L174.12 103.671C170.778 101.747 164.947 101.988 161.088 104.212L136.094 118.64H112.807V134.282C112.711 135.593 113.444 136.843 115.043 137.769L162.014 164.893C165.356 166.817 171.187 166.577 175.046 164.352L220.141 138.31C222.148 137.156 223.206 135.689 223.315 134.282H223.327V118.64H223.351Z" fill="url(#paint20_linear_6326_143)"/>
<path d="M114.298 135.353V119.71H137.585L162.579 105.282C166.438 103.058 172.269 102.817 175.611 104.741L201.542 119.71H223.363V118.628H200.064L174.132 103.659C170.79 101.735 164.959 101.976 161.1 104.2L136.106 118.628H112.819V134.27C112.723 135.581 113.456 136.831 115.055 137.757L115.32 137.914C114.562 137.144 114.226 136.254 114.286 135.353H114.298Z" fill="#D4088C"/>
<path d="M162.038 149.252L115.067 122.127C111.725 120.203 112.146 116.825 116.005 114.601L161.1 88.5581C164.959 86.3338 170.79 86.0933 174.132 88.017L221.102 115.142C224.444 117.065 224.024 120.444 220.165 122.668L175.07 148.711C171.21 150.935 165.38 151.175 162.038 149.252Z" fill="url(#paint21_linear_6326_143)"/>
<path d="M221.09 115.153L174.12 88.0286C172.389 87.0307 169.996 86.6219 167.544 86.7541C169.323 86.8624 170.994 87.2832 172.281 88.0286L219.251 115.153C222.593 117.077 222.172 120.455 218.313 122.68L173.218 148.722C171.355 149.792 169.047 150.405 166.762 150.538C169.588 150.706 172.689 150.093 175.058 148.722L220.153 122.68C224.012 120.455 224.433 117.089 221.09 115.153Z" fill="#3885F1"/>
<path d="M167.784 142.795C166.137 142.795 164.55 142.458 163.372 141.785L128.4 121.598C127.186 120.9 126.524 119.915 126.524 118.82C126.524 117.534 127.462 116.247 129.097 115.31L162.675 95.9281C165.656 94.2088 170.189 94.0284 172.774 95.5314L207.746 115.718C208.96 116.416 209.621 117.402 209.621 118.496C209.621 119.782 208.684 121.069 207.049 122.007L173.471 141.388C171.848 142.326 169.768 142.807 167.784 142.807V142.795ZM168.361 95.2789C166.522 95.2789 164.586 95.7237 163.072 96.6014L129.494 115.983C128.111 116.777 127.318 117.811 127.318 118.808C127.318 119.602 127.847 120.347 128.797 120.888L163.769 141.076C166.137 142.446 170.309 142.266 173.062 140.679L206.64 121.297C208.022 120.504 208.816 119.47 208.816 118.472C208.816 117.678 208.287 116.933 207.337 116.392L172.365 96.2047C171.295 95.5915 169.864 95.2789 168.349 95.2789H168.361Z" fill="#480689"/>
<path d="M164.141 149.251L117.171 122.127C113.829 120.203 114.25 116.824 118.109 114.6L163.204 88.5577C165.031 87.4997 167.315 86.8985 169.551 86.7542C166.69 86.5498 163.504 87.163 161.1 88.5577L116.005 114.6C112.146 116.824 111.725 120.191 115.067 122.127L162.038 149.251C163.793 150.261 166.233 150.67 168.722 150.514C167.003 150.394 165.404 149.973 164.153 149.251H164.141Z" fill="#D4088C"/>
</g>
<g opacity="0.7">
<path d="M223.351 97.094H200.052L174.12 82.1249C170.778 80.2012 164.947 80.4417 161.088 82.666L136.094 97.094H112.807V112.736C112.711 114.047 113.444 115.297 115.043 116.223L162.014 143.348C165.356 145.271 171.187 145.031 175.046 142.807L220.141 116.764C222.148 115.61 223.206 114.143 223.315 112.736H223.327V97.094H223.351Z" fill="url(#paint22_linear_6326_143)"/>
<path d="M114.298 113.818V98.1761H137.585L162.579 83.7481C166.438 81.5238 172.269 81.2833 175.611 83.2071L201.542 98.1761H223.363V97.094H200.064L174.132 82.1249C170.79 80.2012 164.959 80.4417 161.1 82.666L136.106 97.094H112.819V112.736C112.723 114.047 113.456 115.297 115.055 116.223L115.32 116.379C114.562 115.61 114.226 114.72 114.286 113.818H114.298Z" fill="#D4088C"/>
<path d="M162.038 127.706L115.067 100.581C111.725 98.6575 112.146 95.2789 116.005 93.0546L161.1 67.0122C164.959 64.7879 170.79 64.5474 174.132 66.4711L221.102 93.5957C224.444 95.5194 224.024 98.898 220.165 101.122L175.07 127.165C171.21 129.389 165.38 129.63 162.038 127.706Z" fill="url(#paint23_linear_6326_143)"/>
<path d="M221.09 93.6073L174.12 66.4827C172.389 65.4848 169.996 65.076 167.544 65.2082C169.323 65.3165 170.994 65.7373 172.281 66.4827L219.251 93.6073C222.593 95.531 222.172 98.9095 218.313 101.134L173.218 127.176C171.355 128.246 169.047 128.86 166.762 128.992C169.588 129.16 172.689 128.547 175.058 127.176L220.153 101.134C224.012 98.9095 224.433 95.543 221.09 93.6073Z" fill="#3885F1"/>
<path d="M167.784 121.249C166.137 121.249 164.55 120.912 163.372 120.239L128.4 100.052C127.186 99.3546 126.524 98.3687 126.524 97.2746C126.524 95.9881 127.462 94.7016 129.097 93.7638L162.675 74.3822C165.656 72.6629 170.177 72.4825 172.774 73.9855L207.746 94.1726C208.96 94.8699 209.621 95.8558 209.621 96.9499C209.621 98.2364 208.684 99.5229 207.049 100.461L173.471 119.842C171.848 120.78 169.768 121.261 167.784 121.261V121.249ZM168.361 73.733C166.522 73.733 164.586 74.1778 163.072 75.0555L129.494 94.4371C128.111 95.2306 127.318 96.2646 127.318 97.2625C127.318 98.0561 127.847 98.8015 128.797 99.3426L163.769 119.53C166.137 120.9 170.309 120.72 173.062 119.133L206.64 99.7514C208.022 98.9578 208.816 97.9238 208.816 96.9259C208.816 96.1324 208.287 95.3869 207.337 94.8459L172.365 74.6588C171.295 74.0456 169.864 73.745 168.349 73.745L168.361 73.733Z" fill="#480689"/>
<path d="M164.141 127.705L117.171 100.581C113.829 98.6571 114.25 95.2786 118.109 93.0543L163.204 67.0118C165.031 65.9538 167.315 65.3526 169.551 65.2083C166.69 65.0039 163.504 65.6171 161.1 67.0118L116.005 93.0543C112.146 95.2786 111.725 98.6451 115.067 100.581L162.038 127.705C163.793 128.715 166.233 129.124 168.722 128.968C167.003 128.848 165.404 128.427 164.153 127.705H164.141Z" fill="#D4088C"/>
</g>
<path d="M223.351 75.5481H200.052L174.12 60.5791C170.778 58.6553 164.947 58.8958 161.088 61.1201L136.094 75.5481H112.807V91.1904C112.711 92.5009 113.444 93.7513 115.043 94.6771L162.014 121.802C165.356 123.725 171.187 123.485 175.046 121.261L220.141 95.2182C222.148 94.0639 223.206 92.5971 223.315 91.1904H223.327V75.5481H223.351Z" fill="url(#paint24_linear_6326_143)"/>
<path d="M114.298 92.2725V76.6302H137.585L162.579 62.2022C166.438 59.9779 172.269 59.7374 175.611 61.6612L201.542 76.6302H223.363V75.5481H200.064L174.132 60.5791C170.79 58.6553 164.959 58.8958 161.1 61.1201L136.106 75.5481H112.819V91.1904C112.723 92.5009 113.456 93.7513 115.055 94.6771L115.32 94.8334C114.562 94.0639 114.226 93.1742 114.286 92.2725H114.298Z" fill="#D4088C"/>
<path d="M162.038 106.16L115.067 79.0353C111.725 77.1116 112.146 73.7331 116.005 71.5087L161.1 45.4663C164.959 43.242 170.79 43.0015 174.132 44.9252L221.102 72.0498C224.444 73.9735 224.024 77.3521 220.165 79.5764L175.07 105.619C171.21 107.843 165.38 108.084 162.038 106.16Z" fill="url(#paint25_linear_6326_143)"/>
<path d="M221.09 72.0614L174.12 44.9368C172.389 43.9389 169.996 43.5301 167.544 43.6623C169.323 43.7706 170.994 44.1914 172.281 44.9368L219.251 72.0614C222.593 73.9851 222.172 77.3636 218.313 79.5879L173.218 105.63C171.355 106.7 169.047 107.314 166.762 107.446C169.588 107.614 172.689 107.001 175.058 105.63L220.153 79.5879C224.012 77.3636 224.433 73.9971 221.09 72.0614Z" fill="#3885F1"/>
<path d="M167.784 99.7032C166.137 99.7032 164.55 99.3665 163.372 98.6932L128.4 78.5061C127.186 77.8087 126.524 76.8228 126.524 75.7287C126.524 74.4422 127.462 73.1557 129.097 72.2179L162.675 52.8363C165.656 51.117 170.189 50.9366 172.774 52.4396L207.746 72.6267C208.96 73.324 209.621 74.3099 209.621 75.4041C209.621 76.6906 208.684 77.977 207.049 78.9149L173.471 98.2964C171.848 99.2342 169.768 99.7152 167.784 99.7152V99.7032ZM163.769 97.9958C166.137 99.3665 170.309 99.1862 173.062 97.5991L206.64 78.2175C208.022 77.424 208.816 76.39 208.816 75.392C208.816 74.5985 208.287 73.853 207.337 73.312L172.365 53.1249C169.996 51.7542 165.825 51.9346 163.072 53.5217L129.494 72.9032C128.111 73.6967 127.318 74.7308 127.318 75.7287C127.318 76.5222 127.847 77.2677 128.797 77.8087L163.769 97.9958Z" fill="url(#paint26_linear_6326_143)"/>
<path d="M164.141 106.16L117.171 79.0354C113.829 77.1117 114.25 73.7332 118.109 71.5089L163.204 45.4664C165.031 44.4084 167.315 43.8072 169.551 43.6629C166.69 43.4585 163.504 44.0717 161.1 45.4664L116.005 71.5089C112.146 73.7332 111.725 77.0997 115.067 79.0354L162.038 106.16C163.793 107.17 166.233 107.579 168.722 107.422C167.003 107.302 165.404 106.881 164.153 106.16H164.141Z" fill="#3885F1"/>
<path d="M159.946 114.877L120.213 91.8883C119.852 91.6839 119.552 91.1188 119.552 90.6259V88.7502C119.552 88.2693 119.852 88.0408 120.213 88.2573L159.946 111.246C160.307 111.45 160.607 112.015 160.607 112.508V114.384C160.607 114.865 160.307 115.093 159.946 114.877Z" fill="#3885F1"/>
<path d="M121.09 91.3956C120.73 91.1912 120.429 90.6261 120.429 90.1332V88.3777L120.213 88.2575C119.852 88.0531 119.552 88.2696 119.552 88.7505V90.6261C119.552 91.1071 119.852 91.6721 120.213 91.8886L159.946 114.877C160.307 115.082 160.607 114.865 160.607 114.384V114.264L121.09 91.4076V91.3956Z" fill="#267FE5"/>
<g opacity="0.4">
<path d="M298.753 187.341H275.455L249.523 172.372C246.181 170.448 240.35 170.689 236.491 172.913L211.497 187.341H188.21V202.983C188.114 204.294 188.847 205.544 190.446 206.47L237.417 233.595C240.759 235.518 246.589 235.278 250.449 233.054L295.544 207.011C297.551 205.857 298.609 204.39 298.717 202.983H298.729V187.341H298.753Z" fill="url(#paint27_linear_6326_143)"/>
<path d="M189.701 204.053V188.411H212.988L237.982 173.983C241.841 171.759 247.671 171.518 251.014 173.442L276.945 188.411H298.765V187.329H275.467L249.535 172.36C246.193 170.436 240.362 170.677 236.503 172.901L211.509 187.329H188.222V202.971C188.126 204.282 188.859 205.532 190.458 206.458L190.723 206.614C189.965 205.845 189.629 204.955 189.689 204.053H189.701Z" fill="#D4088C"/>
<path d="M237.44 217.953L190.47 190.828C187.128 188.905 187.548 185.526 191.407 183.302L236.502 157.259C240.362 155.035 246.192 154.794 249.534 156.718L296.505 183.843C299.847 185.766 299.426 189.145 295.567 191.369L250.472 217.412C246.613 219.636 240.782 219.877 237.44 217.953Z" fill="url(#paint28_linear_6326_143)"/>
<path d="M296.493 183.842L249.523 156.718C247.792 155.72 245.399 155.311 242.947 155.443C244.726 155.551 246.397 155.972 247.683 156.718L294.654 183.842C297.996 185.766 297.575 189.144 293.716 191.369L248.621 217.411C246.758 218.481 244.449 219.094 242.165 219.227C244.99 219.395 248.092 218.782 250.461 217.411L295.556 191.369C299.415 189.144 299.835 185.778 296.493 183.842Z" fill="#3885F1"/>
<path d="M243.187 211.484C241.54 211.484 239.953 211.147 238.775 210.474L203.803 190.287C202.588 189.589 201.927 188.604 201.927 187.509C201.927 186.223 202.865 184.936 204.5 183.999L238.078 164.617C241.047 162.898 245.58 162.717 248.176 164.22L283.149 184.407C284.363 185.105 285.024 186.091 285.024 187.185C285.024 188.471 284.086 189.758 282.451 190.696L248.874 210.077C247.251 211.015 245.171 211.496 243.187 211.496V211.484ZM239.172 209.777C241.54 211.147 245.712 210.967 248.465 209.38L282.043 189.998C283.425 189.205 284.219 188.171 284.219 187.173C284.219 186.379 283.69 185.634 282.74 185.093L247.768 164.906C245.399 163.535 241.228 163.715 238.475 165.302L204.897 184.684C203.514 185.478 202.721 186.512 202.721 187.509C202.721 188.303 203.25 189.048 204.199 189.589L239.172 209.777Z" fill="#480689"/>
<path d="M239.544 217.952L192.574 190.828C189.231 188.904 189.652 185.526 193.511 183.301L238.606 157.259C240.434 156.201 242.718 155.6 244.954 155.455C242.093 155.251 238.907 155.864 236.502 157.259L191.407 183.301C187.548 185.526 187.128 188.892 190.47 190.828L237.44 217.952C239.195 218.962 241.636 219.371 244.124 219.215C242.405 219.095 240.806 218.674 239.556 217.952H239.544Z" fill="#D4088C"/>
</g>
<g opacity="0.5">
<path d="M298.753 165.795H275.455L249.523 150.826C246.181 148.902 240.35 149.143 236.491 151.367L211.497 165.795H188.21V181.437C188.114 182.748 188.847 183.998 190.446 184.924L237.417 212.049C240.759 213.972 246.589 213.732 250.449 211.508L295.544 185.465C297.551 184.311 298.609 182.844 298.717 181.437H298.729V165.795H298.753Z" fill="url(#paint29_linear_6326_143)"/>
<path d="M189.701 182.508V166.866H212.988L237.982 152.438C241.841 150.213 247.671 149.973 251.014 151.896L276.945 166.866H298.765V165.783H275.467L249.535 150.814C246.193 148.891 240.362 149.131 236.503 151.355L211.509 165.783H188.222V181.426C188.126 182.736 188.859 183.987 190.458 184.912L190.723 185.069C189.965 184.299 189.629 183.41 189.689 182.508H189.701Z" fill="#D4088C"/>
<path d="M237.44 196.407L190.47 169.282C187.128 167.359 187.548 163.98 191.407 161.756L236.502 135.713C240.362 133.489 246.192 133.249 249.534 135.172L296.505 162.297C299.847 164.221 299.426 167.599 295.567 169.823L250.472 195.866C246.613 198.09 240.782 198.331 237.44 196.407Z" fill="url(#paint30_linear_6326_143)"/>
<path d="M296.493 162.308L249.523 135.184C247.792 134.186 245.399 133.777 242.947 133.909C244.726 134.018 246.397 134.438 247.683 135.184L294.654 162.308C297.996 164.232 297.575 167.611 293.716 169.835L248.621 195.878C246.758 196.948 244.449 197.561 242.165 197.693C244.99 197.861 248.092 197.248 250.461 195.878L295.556 169.835C299.415 167.611 299.835 164.244 296.493 162.308Z" fill="#3885F1"/>
<path d="M243.187 189.95C241.54 189.95 239.953 189.614 238.775 188.94L203.803 168.753C202.588 168.056 201.927 167.07 201.927 165.976C201.927 164.689 202.865 163.403 204.5 162.465L238.078 143.083C241.059 141.364 245.592 141.184 248.176 142.687L283.149 162.874C284.363 163.571 285.024 164.557 285.024 165.651C285.024 166.938 284.086 168.224 282.451 169.162L248.874 188.543C247.251 189.481 245.171 189.962 243.187 189.962V189.95ZM243.764 142.434C241.925 142.434 239.989 142.879 238.475 143.757L204.897 163.138C203.514 163.932 202.721 164.966 202.721 165.964C202.721 166.757 203.25 167.503 204.199 168.044L239.172 188.231C241.54 189.602 245.712 189.421 248.465 187.834L282.043 168.453C283.425 167.659 284.219 166.625 284.219 165.627C284.219 164.834 283.69 164.088 282.74 163.547L247.768 143.36C246.698 142.747 245.267 142.446 243.752 142.446L243.764 142.434Z" fill="#480689"/>
<path d="M239.544 196.407L192.574 169.283C189.231 167.359 189.652 163.98 193.511 161.756L238.606 135.713C240.434 134.655 242.718 134.054 244.954 133.91C242.093 133.706 238.907 134.319 236.502 135.713L191.407 161.756C187.548 163.98 187.128 167.347 190.47 169.283L237.44 196.407C239.195 197.417 241.636 197.826 244.124 197.67C242.405 197.549 240.806 197.128 239.556 196.407H239.544Z" fill="#D4088C"/>
</g>
<g opacity="0.7">
<path d="M298.753 144.249H275.455L249.523 129.28C246.181 127.356 240.35 127.597 236.491 129.821L211.497 144.249H188.21V159.892C188.114 161.202 188.847 162.453 190.446 163.378L237.417 190.503C240.759 192.427 246.589 192.186 250.449 189.962L295.544 163.919C297.551 162.765 298.609 161.298 298.717 159.892H298.729V144.249H298.753Z" fill="url(#paint31_linear_6326_143)"/>
<path d="M189.701 160.974V145.331H212.988L237.982 130.903C241.841 128.679 247.671 128.439 251.014 130.362L276.945 145.331H298.765V144.249H275.467L249.535 129.28C246.193 127.356 240.362 127.597 236.503 129.821L211.509 144.249H188.222V159.892C188.126 161.202 188.859 162.453 190.458 163.378L190.723 163.535C189.965 162.765 189.629 161.875 189.689 160.974H189.701Z" fill="#D4088C"/>
<path d="M237.44 174.861L190.47 147.736C187.128 145.812 187.549 142.434 191.408 140.209L236.503 114.167C240.362 111.943 246.193 111.702 249.535 113.626L296.505 140.75C299.847 142.674 299.426 146.053 295.567 148.277L250.472 174.32C246.613 176.544 240.783 176.784 237.44 174.861Z" fill="url(#paint32_linear_6326_143)"/>
<path d="M296.493 140.763L249.523 113.638C247.792 112.64 245.399 112.231 242.947 112.364C244.726 112.472 246.397 112.893 247.683 113.638L294.654 140.763C297.996 142.686 297.575 146.065 293.716 148.289L248.621 174.332C246.758 175.402 244.449 176.015 242.165 176.147C244.99 176.315 248.092 175.702 250.461 174.332L295.556 148.289C299.415 146.065 299.835 142.698 296.493 140.763Z" fill="#3885F1"/>
<path d="M243.187 168.404C241.54 168.404 239.953 168.068 238.775 167.394L203.803 147.207C202.588 146.51 201.927 145.524 201.927 144.43C201.927 143.143 202.865 141.857 204.5 140.919L238.078 121.537C241.047 119.818 245.58 119.638 248.176 121.141L283.149 141.328C284.363 142.025 285.024 143.011 285.024 144.105C285.024 145.392 284.086 146.678 282.451 147.616L248.874 166.998C247.251 167.935 245.171 168.416 243.187 168.416V168.404ZM243.764 120.888C241.925 120.888 239.989 121.333 238.475 122.211L204.897 141.592C203.514 142.386 202.721 143.42 202.721 144.418C202.721 145.211 203.25 145.957 204.199 146.498L239.172 166.685C241.54 168.056 245.712 167.875 248.465 166.288L282.043 146.907C283.425 146.113 284.219 145.079 284.219 144.081C284.219 143.288 283.69 142.542 282.74 142.001L247.768 121.814C246.698 121.201 245.267 120.9 243.752 120.9L243.764 120.888Z" fill="#480689"/>
<path d="M239.544 174.861L192.574 147.737C189.232 145.813 189.652 142.434 193.512 140.21L238.607 114.168C240.434 113.11 242.718 112.508 244.954 112.364C242.093 112.16 238.907 112.773 236.503 114.168L191.408 140.21C187.549 142.434 187.128 145.801 190.47 147.737L237.44 174.861C239.196 175.871 241.636 176.28 244.125 176.124C242.406 176.003 240.807 175.583 239.556 174.861H239.544Z" fill="#D4088C"/>
</g>
<path d="M298.753 122.704H275.455L249.523 107.735C246.181 105.811 240.35 106.052 236.491 108.276L211.497 122.704H188.21V138.346C188.114 139.657 188.847 140.907 190.446 141.833L237.417 168.957C240.759 170.881 246.589 170.641 250.449 168.416L295.544 142.374C297.551 141.22 298.609 139.753 298.717 138.346H298.729V122.704H298.753Z" fill="url(#paint33_linear_6326_143)"/>
<path d="M189.701 139.428V123.786H212.988L237.982 109.358C241.841 107.134 247.671 106.893 251.014 108.817L276.945 123.786H298.765V122.704H275.467L249.535 107.735C246.193 105.811 240.362 106.052 236.503 108.276L211.509 122.704H188.222V138.346C188.126 139.657 188.859 140.907 190.458 141.833L190.723 141.989C189.965 141.22 189.629 140.33 189.689 139.428H189.701Z" fill="#D4088C"/>
<path d="M237.44 153.315L190.47 126.191C187.128 124.267 187.548 120.888 191.407 118.664L236.502 92.6216C240.362 90.3973 246.192 90.1568 249.534 92.0805L296.505 119.205C299.847 121.129 299.426 124.507 295.567 126.732L250.472 152.774C246.613 154.998 240.782 155.239 237.44 153.315Z" fill="url(#paint34_linear_6326_143)"/>
<path d="M296.493 119.217L249.523 92.0926C247.792 91.0946 245.399 90.6858 242.947 90.8181C244.726 90.9263 246.397 91.3471 247.683 92.0926L294.654 119.217C297.996 121.141 297.575 124.519 293.716 126.744L248.621 152.786C246.758 153.856 244.449 154.469 242.165 154.602C244.99 154.77 248.092 154.157 250.461 152.786L295.556 126.744C299.415 124.519 299.835 121.153 296.493 119.217Z" fill="#3885F1"/>
<path d="M243.187 146.703C241.564 146.703 240.013 146.378 238.859 145.705L203.887 125.518C202.732 124.844 202.083 123.906 202.083 122.872C202.083 121.646 202.997 120.408 204.584 119.494L238.162 100.112C241.095 98.4171 245.555 98.2367 248.104 99.7156L283.076 119.903C284.242 120.576 284.88 121.514 284.88 122.548C284.88 123.774 283.966 125.013 282.379 125.926L248.801 145.308C247.202 146.234 245.147 146.703 243.187 146.703ZM243.764 99.1866C241.901 99.1866 239.929 99.6435 238.402 100.533L204.824 119.915C203.394 120.744 202.576 121.814 202.576 122.872C202.576 123.726 203.129 124.52 204.139 125.097L239.111 145.284C241.528 146.679 245.772 146.498 248.573 144.887L282.151 125.506C283.581 124.676 284.399 123.606 284.399 122.548C284.399 121.694 283.846 120.901 282.836 120.324L247.863 100.136C246.769 99.5112 245.303 99.1986 243.776 99.1986L243.764 99.1866Z" fill="url(#paint35_linear_6326_143)"/>
<path d="M239.544 153.316L192.574 126.191C189.231 124.267 189.652 120.889 193.511 118.665L238.606 92.6222C240.434 91.5641 242.718 90.9629 244.954 90.8187C242.093 90.6143 238.907 91.2275 236.502 92.6222L191.407 118.665C187.548 120.889 187.128 124.255 190.47 126.191L237.44 153.316C239.195 154.326 241.636 154.735 244.124 154.578C242.405 154.458 240.806 154.037 239.556 153.316H239.544Z" fill="#3885F1"/>
<path d="M251.807 162.033L291.54 139.044C291.901 138.84 292.201 138.275 292.201 137.782V135.906C292.201 135.425 291.913 135.197 291.54 135.413L251.807 158.402C251.446 158.606 251.146 159.171 251.146 159.664V161.54C251.146 162.021 251.434 162.249 251.807 162.033Z" fill="#3885F1"/>
<path d="M290.662 138.551C291.023 138.347 291.324 137.782 291.324 137.289V135.534L291.54 135.413C291.901 135.209 292.201 135.425 292.201 135.906V137.782C292.201 138.263 291.901 138.828 291.54 139.044L251.807 162.033C251.446 162.237 251.146 162.021 251.146 161.54V161.42L290.662 138.563V138.551Z" fill="#267FE5"/>
<path d="M235.445 162.033L195.712 139.044C195.351 138.84 195.051 138.275 195.051 137.782V135.906C195.051 135.425 195.351 135.197 195.712 135.413L235.445 158.402C235.806 158.606 236.106 159.171 236.106 159.664V161.54C236.106 162.021 235.806 162.249 235.445 162.033Z" fill="#3885F1"/>
<path d="M196.589 138.551C196.229 138.347 195.928 137.782 195.928 137.289V135.534L195.712 135.413C195.351 135.209 195.051 135.425 195.051 135.906V137.782C195.051 138.263 195.351 138.828 195.712 139.044L235.445 162.033C235.806 162.237 236.106 162.021 236.106 161.54V161.42L196.589 138.563V138.551Z" fill="#267FE5"/>
<path d="M237.873 62.8762L190.903 35.7516C187.561 33.8279 187.982 30.4494 191.841 28.2251L236.936 2.18259C240.795 -0.0417153 246.626 -0.282178 249.968 1.64155L296.938 28.7661C300.28 30.6898 299.86 34.0684 296 36.2927L250.905 62.3352C247.046 64.5595 241.216 64.7999 237.873 62.8762Z" fill="url(#paint36_linear_6326_143)"/>
<path d="M239.845 52.885L208.191 34.6096C205.942 33.311 206.219 31.0386 208.816 29.5357L239.208 11.9937C241.805 10.4908 245.736 10.3345 247.984 11.633L279.638 29.9084C281.886 31.207 281.61 33.4794 279.013 34.9823L248.621 52.5243C246.024 54.0272 242.093 54.1835 239.845 52.885Z" fill="url(#paint37_linear_6326_143)"/>
<path d="M313.276 110.032L266.306 82.9074C262.963 80.9837 263.384 77.6051 267.243 75.3808L312.338 49.3384C316.197 47.1141 322.028 46.8736 325.37 48.7973L372.341 75.9219C375.683 77.8456 375.262 81.2241 371.403 83.4485L326.308 109.491C322.449 111.715 316.618 111.956 313.276 110.032Z" fill="url(#paint38_linear_6326_143)"/>
<path d="M162.038 106.16L115.067 79.0358C111.725 77.1121 112.146 73.7335 116.005 71.5092L161.1 45.4668C164.959 43.2425 170.79 43.002 174.132 44.9257L221.102 72.0503C224.445 73.974 224.024 77.3526 220.165 79.5769L175.07 105.619C171.211 107.844 165.38 108.084 162.038 106.16Z" fill="url(#paint39_linear_6326_143)"/>
<path d="M237.44 153.316L190.47 126.191C187.128 124.267 187.549 120.889 191.408 118.665L236.503 92.6221C240.362 90.3977 246.193 90.1573 249.535 92.081L296.505 119.206C299.847 121.129 299.426 124.508 295.567 126.732L250.472 152.775C246.613 154.999 240.783 155.239 237.44 153.316Z" fill="url(#paint40_linear_6326_143)"/>
<path d="M239.881 140.92L211.941 124.785C209.958 123.642 210.21 121.634 212.494 120.312L239.316 104.826C241.612 103.503 245.074 103.359 247.07 104.501L275.01 120.637C276.993 121.779 276.741 123.787 274.456 125.109L247.635 140.595C245.339 141.918 241.877 142.062 239.881 140.92Z" fill="url(#paint41_linear_6326_143)"/>
<path style="mix-blend-mode:lighten" opacity="0.8" d="M405.371 171.437L462.588 138.489L364.685 93.9248L327.975 115.062L405.371 171.437Z" fill="url(#paint42_linear_6326_143)"/>
<path d="M24.5974 154.334C37.8386 154.334 48.5727 143.599 48.5727 130.357C48.5727 117.114 37.8386 106.379 24.5974 106.379C11.3562 106.379 0.62207 117.114 0.62207 130.357C0.62207 143.599 11.3562 154.334 24.5974 154.334Z" fill="url(#paint43_linear_6326_143)"/>
<g style="mix-blend-mode:lighten" opacity="0.8">
<path d="M76.6372 181.361C78.3325 181.361 79.7068 179.987 79.7068 178.292C79.7068 176.596 78.3325 175.222 76.6372 175.222C74.9419 175.222 73.5676 176.596 73.5676 178.292C73.5676 179.987 74.9419 181.361 76.6372 181.361Z" fill="#D4088C"/>
</g>
<g style="mix-blend-mode:lighten">
<path d="M58.7807 164.726C58.7807 165.593 58.0771 166.307 57.2001 166.307C56.323 166.307 55.6194 165.603 55.6194 164.726C55.6194 163.849 56.323 163.146 57.2001 163.146C58.0771 163.146 58.7807 163.849 58.7807 164.726Z" fill="#6EE8FC"/>
</g>
<path d="M32.7146 76.3118L30.9402 69.9885L37.2731 68.2139L37.8238 70.1822L33.4591 71.3959L34.6828 75.7611L32.7146 76.3118Z" fill="#6EE1F8"/>
<path d="M116.613 28.3675C122.099 28.3675 126.546 23.92 126.546 18.4337C126.546 12.9475 122.099 8.5 116.613 8.5C111.127 8.5 106.68 12.9475 106.68 18.4337C106.68 23.92 111.127 28.3675 116.613 28.3675Z" fill="url(#paint44_linear_6326_143)"/>
<defs>
<linearGradient id="paint0_linear_6326_143" x1="178.208" y1="112.52" x2="312.867" y2="112.52" gradientUnits="userSpaceOnUse">
<stop stop-color="#A31FA9"/>
<stop offset="0.07" stop-color="#8A16A0"/>
<stop offset="0.15" stop-color="#740F98"/>
<stop offset="0.24" stop-color="#640A92"/>
<stop offset="0.34" stop-color="#5A068F"/>
<stop offset="0.48" stop-color="#58068E"/>
<stop offset="0.63" stop-color="#4D21A3"/>
<stop offset="0.94" stop-color="#3167D9"/>
<stop offset="1" stop-color="#2C75E4"/>
</linearGradient>
<linearGradient id="paint1_linear_6326_143" x1="641.092" y1="358.604" x2="723.613" y2="342.725" gradientUnits="userSpaceOnUse">
<stop stop-color="#8D139B"/>
<stop offset="0.17" stop-color="#841BA1"/>
<stop offset="0.43" stop-color="#6D32B1"/>
<stop offset="0.76" stop-color="#4958CC"/>
<stop offset="1" stop-color="#2979E4"/>
</linearGradient>
<linearGradient id="paint2_linear_6326_143" x1="-115.95" y1="90.9868" x2="-114.748" y2="90.9868" gradientUnits="userSpaceOnUse">
<stop stop-color="#A31FA9"/>
<stop offset="0.07" stop-color="#8A16A0"/>
<stop offset="0.15" stop-color="#740F98"/>
<stop offset="0.24" stop-color="#640A92"/>
<stop offset="0.34" stop-color="#5A068F"/>
<stop offset="0.48" stop-color="#58068E"/>
<stop offset="0.63" stop-color="#4D21A3"/>
<stop offset="0.94" stop-color="#3167D9"/>
<stop offset="1" stop-color="#2C75E4"/>
</linearGradient>
<linearGradient id="paint3_linear_6326_143" x1="631.774" y1="331.677" x2="714.296" y2="315.798" gradientUnits="userSpaceOnUse">
<stop stop-color="#8D139B"/>
<stop offset="0.17" stop-color="#841BA1"/>
<stop offset="0.43" stop-color="#6D32B1"/>
<stop offset="0.76" stop-color="#4958CC"/>
<stop offset="1" stop-color="#2979E4"/>
</linearGradient>
<linearGradient id="paint4_linear_6326_143" x1="-115.95" y1="69.4409" x2="-114.748" y2="69.4409" gradientUnits="userSpaceOnUse">
<stop stop-color="#A31FA9"/>
<stop offset="0.07" stop-color="#8A16A0"/>
<stop offset="0.15" stop-color="#740F98"/>
<stop offset="0.24" stop-color="#640A92"/>
<stop offset="0.34" stop-color="#5A068F"/>
<stop offset="0.48" stop-color="#58068E"/>
<stop offset="0.63" stop-color="#4D21A3"/>
<stop offset="0.94" stop-color="#3167D9"/>
<stop offset="1" stop-color="#2C75E4"/>
</linearGradient>
<linearGradient id="paint5_linear_6326_143" x1="622.44" y1="304.754" x2="704.961" y2="288.875" gradientUnits="userSpaceOnUse">
<stop stop-color="#8D139B"/>
<stop offset="0.17" stop-color="#841BA1"/>
<stop offset="0.43" stop-color="#6D32B1"/>
<stop offset="0.76" stop-color="#4958CC"/>
<stop offset="1" stop-color="#2979E4"/>
</linearGradient>
<linearGradient id="paint6_linear_6326_143" x1="-115.95" y1="47.8951" x2="-114.748" y2="47.8951" gradientUnits="userSpaceOnUse">
<stop stop-color="#A31FA9"/>
<stop offset="0.07" stop-color="#8A16A0"/>
<stop offset="0.15" stop-color="#740F98"/>
<stop offset="0.24" stop-color="#640A92"/>
<stop offset="0.34" stop-color="#5A068F"/>
<stop offset="0.48" stop-color="#58068E"/>
<stop offset="0.63" stop-color="#4D21A3"/>
<stop offset="0.94" stop-color="#3167D9"/>
<stop offset="1" stop-color="#2C75E4"/>
</linearGradient>
<linearGradient id="paint7_linear_6326_143" x1="613.112" y1="277.821" x2="695.633" y2="261.942" gradientUnits="userSpaceOnUse">
<stop stop-color="#267FE5"/>
<stop offset="0.17" stop-color="#2C87E6"/>
<stop offset="0.44" stop-color="#3D9EEB"/>
<stop offset="0.78" stop-color="#58C4F2"/>
<stop offset="1" stop-color="#6EE1F8"/>
</linearGradient>
<linearGradient id="paint8_linear_6326_143" x1="202.372" y1="32.2654" x2="285.469" y2="32.2654" gradientUnits="userSpaceOnUse">
<stop stop-color="#6DE0F6"/>
<stop offset="0.16" stop-color="#67D7F4"/>
<stop offset="0.41" stop-color="#59C0F0"/>
<stop offset="0.73" stop-color="#429AEA"/>
<stop offset="1" stop-color="#2C75E4"/>
</linearGradient>
<linearGradient id="paint9_linear_6326_143" x1="253.61" y1="159.688" x2="388.27" y2="159.688" gradientUnits="userSpaceOnUse">
<stop stop-color="#A31FA9"/>
<stop offset="0.07" stop-color="#8A16A0"/>
<stop offset="0.15" stop-color="#740F98"/>
<stop offset="0.24" stop-color="#640A92"/>
<stop offset="0.34" stop-color="#5A068F"/>
<stop offset="0.48" stop-color="#58068E"/>
<stop offset="0.63" stop-color="#4D21A3"/>
<stop offset="0.94" stop-color="#3167D9"/>
<stop offset="1" stop-color="#2C75E4"/>
</linearGradient>
<linearGradient id="paint10_linear_6326_143" x1="718.074" y1="406.663" x2="800.595" y2="390.784" gradientUnits="userSpaceOnUse">
<stop stop-color="#8D139B"/>
<stop offset="0.17" stop-color="#841BA1"/>
<stop offset="0.43" stop-color="#6D32B1"/>
<stop offset="0.76" stop-color="#4958CC"/>
<stop offset="1" stop-color="#2979E4"/>
</linearGradient>
<linearGradient id="paint11_linear_6326_143" x1="253.61" y1="138.143" x2="388.27" y2="138.143" gradientUnits="userSpaceOnUse">
<stop stop-color="#A31FA9"/>
<stop offset="0.07" stop-color="#8A16A0"/>
<stop offset="0.15" stop-color="#740F98"/>
<stop offset="0.24" stop-color="#640A92"/>
<stop offset="0.34" stop-color="#5A068F"/>
<stop offset="0.48" stop-color="#58068E"/>
<stop offset="0.63" stop-color="#4D21A3"/>
<stop offset="0.94" stop-color="#3167D9"/>
<stop offset="1" stop-color="#2C75E4"/>
</linearGradient>
<linearGradient id="paint12_linear_6326_143" x1="708.739" y1="379.741" x2="791.261" y2="363.862" gradientUnits="userSpaceOnUse">
<stop stop-color="#8D139B"/>
<stop offset="0.17" stop-color="#841BA1"/>
<stop offset="0.43" stop-color="#6D32B1"/>
<stop offset="0.76" stop-color="#4958CC"/>
<stop offset="1" stop-color="#2979E4"/>
</linearGradient>
<linearGradient id="paint13_linear_6326_143" x1="253.61" y1="116.598" x2="388.27" y2="116.598" gradientUnits="userSpaceOnUse">
<stop stop-color="#A31FA9"/>
<stop offset="0.07" stop-color="#8A16A0"/>
<stop offset="0.15" stop-color="#740F98"/>
<stop offset="0.24" stop-color="#640A92"/>
<stop offset="0.34" stop-color="#5A068F"/>
<stop offset="0.48" stop-color="#58068E"/>
<stop offset="0.63" stop-color="#4D21A3"/>
<stop offset="0.94" stop-color="#3167D9"/>
<stop offset="1" stop-color="#2C75E4"/>
</linearGradient>
<linearGradient id="paint14_linear_6326_143" x1="699.411" y1="352.808" x2="781.933" y2="336.929" gradientUnits="userSpaceOnUse">
<stop stop-color="#8D139B"/>
<stop offset="0.17" stop-color="#841BA1"/>
<stop offset="0.43" stop-color="#6D32B1"/>
<stop offset="0.76" stop-color="#4958CC"/>
<stop offset="1" stop-color="#2979E4"/>
</linearGradient>
<linearGradient id="paint15_linear_6326_143" x1="253.61" y1="95.0509" x2="388.27" y2="95.0509" gradientUnits="userSpaceOnUse">
<stop stop-color="#A31FA9"/>
<stop offset="0.07" stop-color="#8A16A0"/>
<stop offset="0.15" stop-color="#740F98"/>
<stop offset="0.24" stop-color="#640A92"/>
<stop offset="0.34" stop-color="#5A068F"/>
<stop offset="0.48" stop-color="#58068E"/>
<stop offset="0.63" stop-color="#4D21A3"/>
<stop offset="0.94" stop-color="#3167D9"/>
<stop offset="1" stop-color="#2C75E4"/>
</linearGradient>
<linearGradient id="paint16_linear_6326_143" x1="690.087" y1="325.89" x2="772.609" y2="310.011" gradientUnits="userSpaceOnUse">
<stop stop-color="#267FE5"/>
<stop offset="0.17" stop-color="#2C87E6"/>
<stop offset="0.44" stop-color="#3D9EEB"/>
<stop offset="0.78" stop-color="#58C4F2"/>
<stop offset="1" stop-color="#6EE1F8"/>
</linearGradient>
<linearGradient id="paint17_linear_6326_143" x1="277.775" y1="79.4212" x2="360.872" y2="79.4212" gradientUnits="userSpaceOnUse">
<stop stop-color="#6DE0F6"/>
<stop offset="0.16" stop-color="#67D7F4"/>
<stop offset="0.41" stop-color="#59C0F0"/>
<stop offset="0.73" stop-color="#429AEA"/>
<stop offset="1" stop-color="#2C75E4"/>
</linearGradient>
<linearGradient id="paint18_linear_6326_143" x1="102.36" y1="155.816" x2="237.032" y2="155.816" gradientUnits="userSpaceOnUse">
<stop stop-color="#A31FA9"/>
<stop offset="0.07" stop-color="#8A16A0"/>
<stop offset="0.15" stop-color="#740F98"/>
<stop offset="0.24" stop-color="#640A92"/>
<stop offset="0.34" stop-color="#5A068F"/>
<stop offset="0.48" stop-color="#58068E"/>
<stop offset="0.63" stop-color="#4D21A3"/>
<stop offset="0.94" stop-color="#3167D9"/>
<stop offset="1" stop-color="#2C75E4"/>
</linearGradient>
<linearGradient id="paint19_linear_6326_143" x1="602.964" y1="423.664" x2="685.474" y2="407.779" gradientUnits="userSpaceOnUse">
<stop stop-color="#8D139B"/>
<stop offset="0.17" stop-color="#841BA1"/>
<stop offset="0.43" stop-color="#6D32B1"/>
<stop offset="0.76" stop-color="#4958CC"/>
<stop offset="1" stop-color="#2979E4"/>
</linearGradient>
<linearGradient id="paint20_linear_6326_143" x1="102.36" y1="134.282" x2="237.032" y2="134.282" gradientUnits="userSpaceOnUse">
<stop stop-color="#A31FA9"/>
<stop offset="0.07" stop-color="#8A16A0"/>
<stop offset="0.15" stop-color="#740F98"/>
<stop offset="0.24" stop-color="#640A92"/>
<stop offset="0.34" stop-color="#5A068F"/>
<stop offset="0.48" stop-color="#58068E"/>
<stop offset="0.63" stop-color="#4D21A3"/>
<stop offset="0.94" stop-color="#3167D9"/>
<stop offset="1" stop-color="#2C75E4"/>
</linearGradient>
<linearGradient id="paint21_linear_6326_143" x1="593.629" y1="396.741" x2="676.151" y2="380.862" gradientUnits="userSpaceOnUse">
<stop stop-color="#8D139B"/>
<stop offset="0.17" stop-color="#841BA1"/>
<stop offset="0.43" stop-color="#6D32B1"/>
<stop offset="0.76" stop-color="#4958CC"/>
<stop offset="1" stop-color="#2979E4"/>
</linearGradient>
<linearGradient id="paint22_linear_6326_143" x1="102.36" y1="112.736" x2="237.032" y2="112.736" gradientUnits="userSpaceOnUse">
<stop stop-color="#A31FA9"/>
<stop offset="0.07" stop-color="#8A16A0"/>
<stop offset="0.15" stop-color="#740F98"/>
<stop offset="0.24" stop-color="#640A92"/>
<stop offset="0.34" stop-color="#5A068F"/>
<stop offset="0.48" stop-color="#58068E"/>
<stop offset="0.63" stop-color="#4D21A3"/>
<stop offset="0.94" stop-color="#3167D9"/>
<stop offset="1" stop-color="#2C75E4"/>
</linearGradient>
<linearGradient id="paint23_linear_6326_143" x1="584.301" y1="369.808" x2="666.823" y2="353.929" gradientUnits="userSpaceOnUse">
<stop stop-color="#8D139B"/>
<stop offset="0.17" stop-color="#841BA1"/>
<stop offset="0.43" stop-color="#6D32B1"/>
<stop offset="0.76" stop-color="#4958CC"/>
<stop offset="1" stop-color="#2979E4"/>
</linearGradient>
<linearGradient id="paint24_linear_6326_143" x1="102.36" y1="91.1904" x2="237.032" y2="91.1904" gradientUnits="userSpaceOnUse">
<stop stop-color="#A31FA9"/>
<stop offset="0.07" stop-color="#8A16A0"/>
<stop offset="0.15" stop-color="#740F98"/>
<stop offset="0.24" stop-color="#640A92"/>
<stop offset="0.34" stop-color="#5A068F"/>
<stop offset="0.48" stop-color="#58068E"/>
<stop offset="0.63" stop-color="#4D21A3"/>
<stop offset="0.94" stop-color="#3167D9"/>
<stop offset="1" stop-color="#2C75E4"/>
</linearGradient>
<linearGradient id="paint25_linear_6326_143" x1="574.967" y1="342.885" x2="657.488" y2="327.006" gradientUnits="userSpaceOnUse">
<stop stop-color="#267FE5"/>
<stop offset="0.17" stop-color="#2C87E6"/>
<stop offset="0.44" stop-color="#3D9EEB"/>
<stop offset="0.78" stop-color="#58C4F2"/>
<stop offset="1" stop-color="#6EE1F8"/>
</linearGradient>
<linearGradient id="paint26_linear_6326_143" x1="126.524" y1="75.5483" x2="209.621" y2="75.5483" gradientUnits="userSpaceOnUse">
<stop stop-color="#6DE0F6"/>
<stop offset="0.16" stop-color="#67D7F4"/>
<stop offset="0.41" stop-color="#59C0F0"/>
<stop offset="0.73" stop-color="#429AEA"/>
<stop offset="1" stop-color="#2C75E4"/>
</linearGradient>
<linearGradient id="paint27_linear_6326_143" x1="177.763" y1="202.971" x2="312.435" y2="202.971" gradientUnits="userSpaceOnUse">
<stop stop-color="#A31FA9"/>
<stop offset="0.07" stop-color="#8A16A0"/>
<stop offset="0.15" stop-color="#740F98"/>
<stop offset="0.24" stop-color="#640A92"/>
<stop offset="0.34" stop-color="#5A068F"/>
<stop offset="0.48" stop-color="#58068E"/>
<stop offset="0.63" stop-color="#4D21A3"/>
<stop offset="0.94" stop-color="#3167D9"/>
<stop offset="1" stop-color="#2C75E4"/>
</linearGradient>
<linearGradient id="paint28_linear_6326_143" x1="679.928" y1="471.728" x2="762.449" y2="455.849" gradientUnits="userSpaceOnUse">
<stop stop-color="#8D139B"/>
<stop offset="0.17" stop-color="#841BA1"/>
<stop offset="0.43" stop-color="#6D32B1"/>
<stop offset="0.76" stop-color="#4958CC"/>
<stop offset="1" stop-color="#2979E4"/>
</linearGradient>
<linearGradient id="paint29_linear_6326_143" x1="177.763" y1="181.437" x2="312.435" y2="181.437" gradientUnits="userSpaceOnUse">
<stop stop-color="#A31FA9"/>
<stop offset="0.07" stop-color="#8A16A0"/>
<stop offset="0.15" stop-color="#740F98"/>
<stop offset="0.24" stop-color="#640A92"/>
<stop offset="0.34" stop-color="#5A068F"/>
<stop offset="0.48" stop-color="#58068E"/>
<stop offset="0.63" stop-color="#4D21A3"/>
<stop offset="0.94" stop-color="#3167D9"/>
<stop offset="1" stop-color="#2C75E4"/>
</linearGradient>
<linearGradient id="paint30_linear_6326_143" x1="670.6" y1="444.794" x2="753.121" y2="428.915" gradientUnits="userSpaceOnUse">
<stop stop-color="#8D139B"/>
<stop offset="0.17" stop-color="#841BA1"/>
<stop offset="0.43" stop-color="#6D32B1"/>
<stop offset="0.76" stop-color="#4958CC"/>
<stop offset="1" stop-color="#2979E4"/>
</linearGradient>
<linearGradient id="paint31_linear_6326_143" x1="177.763" y1="159.892" x2="312.435" y2="159.892" gradientUnits="userSpaceOnUse">
<stop stop-color="#A31FA9"/>
<stop offset="0.07" stop-color="#8A16A0"/>
<stop offset="0.15" stop-color="#740F98"/>
<stop offset="0.24" stop-color="#640A92"/>
<stop offset="0.34" stop-color="#5A068F"/>
<stop offset="0.48" stop-color="#58068E"/>
<stop offset="0.63" stop-color="#4D21A3"/>
<stop offset="0.94" stop-color="#3167D9"/>
<stop offset="1" stop-color="#2C75E4"/>
</linearGradient>
<linearGradient id="paint32_linear_6326_143" x1="661.276" y1="417.877" x2="743.787" y2="401.992" gradientUnits="userSpaceOnUse">
<stop stop-color="#8D139B"/>
<stop offset="0.17" stop-color="#841BA1"/>
<stop offset="0.43" stop-color="#6D32B1"/>
<stop offset="0.76" stop-color="#4958CC"/>
<stop offset="1" stop-color="#2979E4"/>
</linearGradient>
<linearGradient id="paint33_linear_6326_143" x1="177.763" y1="138.346" x2="312.435" y2="138.346" gradientUnits="userSpaceOnUse">
<stop stop-color="#A31FA9"/>
<stop offset="0.07" stop-color="#8A16A0"/>
<stop offset="0.15" stop-color="#740F98"/>
<stop offset="0.24" stop-color="#640A92"/>
<stop offset="0.34" stop-color="#5A068F"/>
<stop offset="0.48" stop-color="#58068E"/>
<stop offset="0.63" stop-color="#4D21A3"/>
<stop offset="0.94" stop-color="#3167D9"/>
<stop offset="1" stop-color="#2C75E4"/>
</linearGradient>
<linearGradient id="paint34_linear_6326_143" x1="651.948" y1="390.944" x2="734.469" y2="375.065" gradientUnits="userSpaceOnUse">
<stop stop-color="#267FE5"/>
<stop offset="0.17" stop-color="#2C87E6"/>
<stop offset="0.44" stop-color="#3D9EEB"/>
<stop offset="0.78" stop-color="#58C4F2"/>
<stop offset="1" stop-color="#6EE1F8"/>
</linearGradient>
<linearGradient id="paint35_linear_6326_143" x1="202.095" y1="122.716" x2="284.868" y2="122.716" gradientUnits="userSpaceOnUse">
<stop stop-color="#6DE0F6"/>
<stop offset="0.16" stop-color="#67D7F4"/>
<stop offset="0.41" stop-color="#59C0F0"/>
<stop offset="0.73" stop-color="#429AEA"/>
<stop offset="1" stop-color="#2C75E4"/>
</linearGradient>
<linearGradient id="paint36_linear_6326_143" x1="613.112" y1="277.821" x2="695.633" y2="261.942" gradientUnits="userSpaceOnUse">
<stop stop-color="#8D139B"/>
<stop offset="0.17" stop-color="#841BA1"/>
<stop offset="0.43" stop-color="#6D32B1"/>
<stop offset="0.76" stop-color="#4958CC"/>
<stop offset="1" stop-color="#2979E4"/>
</linearGradient>
<linearGradient id="paint37_linear_6326_143" x1="626.854" y1="275.177" x2="682.462" y2="264.485" gradientUnits="userSpaceOnUse">
<stop stop-color="#267FE5"/>
<stop offset="0.17" stop-color="#2C87E6"/>
<stop offset="0.44" stop-color="#3D9EEB"/>
<stop offset="0.78" stop-color="#58C4F2"/>
<stop offset="1" stop-color="#6EE1F8"/>
</linearGradient>
<linearGradient id="paint38_linear_6326_143" x1="690.087" y1="325.891" x2="772.609" y2="310.012" gradientUnits="userSpaceOnUse">
<stop stop-color="#8D139B"/>
<stop offset="0.17" stop-color="#841BA1"/>
<stop offset="0.43" stop-color="#6D32B1"/>
<stop offset="0.76" stop-color="#4958CC"/>
<stop offset="1" stop-color="#2979E4"/>
</linearGradient>
<linearGradient id="paint39_linear_6326_143" x1="574.967" y1="342.886" x2="657.489" y2="327.007" gradientUnits="userSpaceOnUse">
<stop stop-color="#8D139B"/>
<stop offset="0.17" stop-color="#841BA1"/>
<stop offset="0.43" stop-color="#6D32B1"/>
<stop offset="0.76" stop-color="#4958CC"/>
<stop offset="1" stop-color="#2979E4"/>
</linearGradient>
<linearGradient id="paint40_linear_6326_143" x1="651.948" y1="390.945" x2="734.47" y2="375.066" gradientUnits="userSpaceOnUse">
<stop stop-color="#267FE5"/>
<stop offset="0.17" stop-color="#2C87E6"/>
<stop offset="0.44" stop-color="#3D9EEB"/>
<stop offset="0.78" stop-color="#58C4F2"/>
<stop offset="1" stop-color="#6EE1F8"/>
</linearGradient>
<linearGradient id="paint41_linear_6326_143" x1="670.643" y1="391.771" x2="718.253" y2="373.63" gradientUnits="userSpaceOnUse">
<stop stop-color="#A31FA9"/>
<stop offset="0.05" stop-color="#8A16A0"/>
<stop offset="0.11" stop-color="#740F98"/>
<stop offset="0.18" stop-color="#640A92"/>
<stop offset="0.26" stop-color="#5A068F"/>
<stop offset="0.36" stop-color="#58068E"/>
<stop offset="0.54" stop-color="#4D21A3"/>
<stop offset="0.93" stop-color="#3167D9"/>
<stop offset="1" stop-color="#2C75E4"/>
</linearGradient>
<linearGradient id="paint42_linear_6326_143" x1="434.815" y1="157.415" x2="378.243" y2="85.1253" gradientUnits="userSpaceOnUse">
<stop stop-color="#071033"/>
<stop offset="0.17" stop-color="#071236"/>
<stop offset="0.32" stop-color="#091841"/>
<stop offset="0.46" stop-color="#0D2353"/>
<stop offset="0.6" stop-color="#12326D"/>
<stop offset="0.73" stop-color="#18468E"/>
<stop offset="0.87" stop-color="#205EB7"/>
<stop offset="0.99" stop-color="#2979E4"/>
</linearGradient>
<linearGradient id="paint43_linear_6326_143" x1="41.5385" y1="113.396" x2="7.62901" y2="147.302" gradientUnits="userSpaceOnUse">
<stop stop-color="#D4088C"/>
<stop offset="0.04" stop-color="#CB078B"/>
<stop offset="0.46" stop-color="#85068A"/>
<stop offset="0.76" stop-color="#580689"/>
<stop offset="0.91" stop-color="#480689"/>
</linearGradient>
<linearGradient id="paint44_linear_6326_143" x1="126.536" y1="18.4235" x2="106.68" y2="18.4235" gradientUnits="userSpaceOnUse">
<stop stop-color="#379FF4"/>
<stop offset="0.96" stop-color="#3858ED"/>
</linearGradient>
</defs>
</svg>
