<svg width="77" height="76" viewBox="0 0 77 76" fill="none" xmlns="http://www.w3.org/2000/svg">
<path d="M21.865 1.17982C21.4869 1.36589 21.0458 1.75351 20.8409 2.06361C20.4943 2.62179 20.4786 2.77683 20.4313 6.93215L20.3683 11.2115L19.5648 11.4751C17.7845 12.0333 16.2879 12.9636 14.7912 14.421C13.1212 16.049 12.2547 17.3825 11.6245 19.3206L11.1834 20.685L6.81934 20.7315C2.70739 20.778 2.43956 20.7935 2.02994 21.1036C1.19494 21.7083 0.942871 22.2045 0.942871 23.1813C0.942871 24.1581 1.19494 24.6543 2.02994 25.259C2.43956 25.5691 2.70739 25.5846 6.70906 25.6311L10.947 25.6776V30.6237V35.5697L6.70906 35.6163C2.70739 35.6628 2.43956 35.6783 2.02994 35.9884C1.19494 36.5931 0.942871 37.0892 0.942871 38.066C0.942871 39.0428 1.19494 39.539 2.02994 40.1437C2.43956 40.4538 2.70739 40.4693 6.70906 40.5158L10.947 40.5623V45.5084V50.4545L6.70906 50.501C2.70739 50.5475 2.43956 50.563 2.02994 50.8731C1.19494 51.4778 0.942871 51.9739 0.942871 52.9508C0.942871 53.9276 1.19494 54.4237 2.02994 55.0284C2.43956 55.3385 2.70739 55.354 6.81934 55.4005L11.1834 55.447L11.6245 56.8115C12.2547 58.7496 13.1212 60.083 14.7912 61.711C16.2879 63.1685 17.7845 64.0988 19.5648 64.657L20.3683 64.9205L20.4313 69.1999C20.4786 73.3552 20.4943 73.5103 20.8409 74.0684C21.2348 74.6886 22.2746 75.2778 22.9993 75.2778C23.6138 75.2778 24.6693 74.7352 25.0474 74.2235C25.3468 73.8359 25.3625 73.5258 25.4098 69.5875L25.457 65.3547H30.7979H36.1387L36.1859 69.5255C36.2332 73.4638 36.2489 73.7273 36.564 74.1305C37.1785 74.9522 37.6826 75.2003 38.6752 75.2003C39.6677 75.2003 40.1718 74.9522 40.7863 74.1305C41.1014 73.7273 41.1171 73.4638 41.1644 69.5255L41.2117 65.3547H45.9223H50.6172L50.6802 69.4325C50.7274 73.3552 50.7432 73.5103 51.0898 74.0684C51.4837 74.6886 52.5235 75.2778 53.2482 75.2778C53.8626 75.2778 54.9182 74.7352 55.2963 74.2235C55.5956 73.8359 55.6114 73.5258 55.6586 69.51L55.7059 65.1996L56.1313 65.1066C58.7465 64.5484 60.7159 63.5096 62.5591 61.711C64.2291 60.083 65.0956 58.7496 65.7258 56.8115L66.1669 55.447L70.531 55.4005C74.6429 55.354 74.9108 55.3385 75.3204 55.0284C76.1554 54.4237 76.4074 53.9276 76.4074 52.9508C76.4074 51.9739 76.1554 51.4778 75.3204 50.8731C74.9108 50.563 74.6429 50.5475 70.6413 50.501L66.4033 50.4545V45.5084V40.5623L70.6413 40.5158C74.6429 40.4693 74.9108 40.4538 75.3204 40.1437C76.1554 39.539 76.4074 39.0428 76.4074 38.066C76.4074 37.0892 76.1554 36.5931 75.3204 35.9884C74.9108 35.6783 74.6429 35.6628 70.6413 35.6163L66.4033 35.5697V30.6237V25.6776L70.6413 25.6311C74.6429 25.5846 74.9108 25.5691 75.3204 25.259C76.1554 24.6543 76.4074 24.1581 76.4074 23.1813C76.4074 22.2045 76.1554 21.7083 75.3204 21.1036C74.9108 20.7935 74.6429 20.778 70.531 20.7315L66.1669 20.685L65.7258 19.3206C65.0956 17.398 64.2291 16.049 62.5591 14.421C60.7316 12.638 58.7465 11.5836 56.1313 11.0255L55.7059 10.9324L55.6586 6.62206C55.6114 2.60628 55.5956 2.29618 55.2963 1.90856C54.9182 1.3969 53.8626 0.854225 53.2482 0.854225C52.5235 0.854225 51.4837 1.44341 51.0898 2.06361C50.7432 2.62179 50.7274 2.77683 50.6802 6.69958L50.6172 10.7774H45.9223H41.2117L41.1644 6.60655C41.1171 2.6683 41.1014 2.40472 40.7863 2.00159C40.1718 1.17982 39.6677 0.931747 38.6752 0.931747C37.6826 0.931747 37.1785 1.17982 36.564 2.00159C36.2489 2.40472 36.2332 2.6683 36.1859 6.60655L36.1387 10.7774H30.7979H25.457L25.4098 6.54453C25.3625 1.78452 25.3625 1.78452 24.0864 1.16432C23.2829 0.761192 22.7 0.776703 21.865 1.17982ZM55.5799 15.9715C58.3054 16.6692 60.4165 18.7314 61.1255 21.3982C61.4878 22.7782 61.4878 53.3539 61.1255 54.7338C60.4165 57.4007 58.3054 59.4628 55.5799 60.1605C54.225 60.5016 23.1254 60.5016 21.7705 60.1605C19.0449 59.4628 16.9338 57.4007 16.2248 54.7338C15.8782 53.3694 15.8625 22.7782 16.2248 21.4293C16.9338 18.7779 19.0134 16.6847 21.6759 15.987C22.9678 15.6459 54.2565 15.6304 55.5799 15.9715Z" fill="#3796F3"/>
<path d="M26.7174 20.9485C24.0549 21.6462 21.9753 23.7394 21.2663 26.3907C20.9197 27.7086 20.9197 48.4232 21.2663 49.7411C21.9753 52.4235 24.0706 54.5011 26.7804 55.1988C28.1668 55.5555 49.1835 55.5555 50.5699 55.1988C53.2797 54.5011 55.375 52.4235 56.084 49.7411C56.4306 48.4232 56.4306 27.7086 56.084 26.3907C55.375 23.7084 53.2797 21.6307 50.5699 20.933C49.2307 20.5919 28.025 20.6074 26.7174 20.9485ZM50.113 26.0651C50.3493 26.2357 50.6959 26.5768 50.8692 26.8093C51.2001 27.228 51.2001 27.3675 51.2001 38.0659C51.2001 48.7643 51.2001 48.9039 50.8692 49.3225C50.6959 49.5551 50.3493 49.8962 50.113 50.0667C49.6876 50.3923 49.5458 50.3923 38.6751 50.3923C27.8045 50.3923 27.6627 50.3923 27.2373 50.0667C27.001 49.8962 26.6544 49.5551 26.4811 49.3225C26.1502 48.9039 26.1502 48.7178 26.103 38.4845C26.0715 32.7477 26.103 27.8482 26.1502 27.5691C26.2605 26.9489 26.9222 26.1581 27.5681 25.879C27.9463 25.7085 30.1046 25.6775 38.8642 25.7085C49.5143 25.7395 49.6876 25.7395 50.113 26.0651Z" fill="#3796F3"/>
</svg>
