<svg width="61" height="69" viewBox="0 0 61 69" fill="none" xmlns="http://www.w3.org/2000/svg">
<path d="M28.2164 0.535728C24.0682 0.962654 20.9097 1.82983 17.5071 3.45747C9.63099 7.21969 3.80187 14.2906 1.64645 22.7222C0.873757 25.764 0.860201 26.0575 0.805976 36.1302C0.738196 46.563 0.738196 46.523 1.67357 48.3908C2.29715 49.6048 3.84254 51.1657 5.06259 51.7928C6.86555 52.7267 8.93963 52.9668 10.851 52.4865C12.3829 52.0996 13.4267 51.5126 14.5925 50.3519C15.7719 49.2046 16.3684 48.1773 16.7615 46.6697C17.0055 45.7225 17.0326 45.1755 17.0326 39.9458C17.0326 34.716 17.0055 34.169 16.7615 33.2218C16.3684 31.7142 15.7719 30.6869 14.5925 29.5396C12.5862 27.5517 9.96989 26.7646 7.27223 27.3249C6.78421 27.4317 6.36397 27.485 6.33686 27.4584C6.24197 27.3783 6.62154 25.217 6.96044 23.8829C10.1461 11.4355 22.9295 3.64424 35.74 6.35251C40.7964 7.41981 45.636 10.2482 48.9843 14.0638C52.1022 17.6392 54.2441 22.3353 54.7999 26.7913C54.8812 27.5117 54.8676 27.5651 54.6372 27.485C52.6987 26.8847 50.3399 27.1248 48.4421 28.0987C47.344 28.6591 45.6902 30.2867 45.1208 31.3673C44.199 33.0884 44.1448 33.5953 44.1448 39.9458C44.1448 46.2962 44.199 46.8032 45.1208 48.5242C45.6902 49.6048 47.344 51.2324 48.4421 51.7928C50.0552 52.6333 51.9666 52.9268 53.6883 52.6066C54.1221 52.5266 54.5016 52.4999 54.5559 52.5399C54.5965 52.5799 54.3932 53.0869 54.1085 53.6472C53.4036 55.0747 51.926 56.5156 50.5161 57.2093C48.8352 58.0098 48.2116 58.0898 42.9247 58.0765H38.2479L37.787 57.1159C37.1498 55.7818 35.6451 54.3143 34.2488 53.6339C31.8223 52.4732 29.1111 52.4999 26.7523 53.7139C25.6543 54.2743 24.0004 55.9019 23.4311 56.9825C22.4822 58.7569 22.2381 60.7981 22.7262 62.6792C23.1193 64.1868 23.7158 65.2141 24.8951 66.3614C26.9286 68.3759 29.5042 69.1364 32.2832 68.5627C34.5742 68.0958 36.8245 66.3881 37.787 64.4136L38.2479 63.453L43.6025 63.3997C48.4963 63.3463 49.0521 63.3196 50.0417 63.0528C55.3963 61.6786 59.2734 57.5695 60.2087 52.2864C60.385 51.2992 60.4121 49.338 60.4121 39.8123C60.4121 32.8482 60.3579 27.9653 60.263 27.0581C59.2598 16.8387 52.9969 7.92678 43.6703 3.44412C40.9184 2.12334 38.0581 1.24282 35.0622 0.789215C33.693 0.589096 29.328 0.429001 28.2164 0.535728ZM10.3901 32.9283C10.6748 33.1017 11.0408 33.4886 11.2171 33.7688L11.5424 34.2757V39.9458V45.6158L11.2171 46.1228C11.0408 46.4029 10.6477 46.7898 10.3495 46.9899C9.88855 47.2968 9.64454 47.3501 8.89896 47.3501C8.15338 47.3501 7.90937 47.2968 7.44846 46.9899C7.15022 46.7898 6.7571 46.4029 6.58087 46.1228L6.25552 45.6158L6.21485 40.2526C6.18774 36.6505 6.22841 34.7027 6.3233 34.3424C6.49953 33.6887 7.35357 32.8082 7.97715 32.6214C8.69562 32.408 9.80722 32.5414 10.3901 32.9283ZM53.7696 32.9283C54.0543 33.1017 54.4203 33.4886 54.5965 33.7688L54.9219 34.2757V39.9458V45.6158L54.5965 46.1228C54.4203 46.4029 54.0272 46.7898 53.7289 46.9899C53.268 47.2968 53.024 47.3501 52.2784 47.3501C51.5329 47.3501 51.2888 47.2968 50.8279 46.9899C50.5297 46.7898 50.1366 46.4029 49.9603 46.1228L49.635 45.6158L49.5943 40.2526C49.5672 36.6505 49.6079 34.7027 49.7028 34.3424C49.879 33.6887 50.733 32.8082 51.3566 32.6214C52.0751 32.408 53.1867 32.5414 53.7696 32.9283ZM32.0799 58.5434C32.8797 59.0638 33.2321 59.7308 33.2321 60.7581C33.2321 61.7987 32.8797 62.4524 32.0392 62.9994C31.2801 63.4931 29.9651 63.5197 29.1924 63.0394C28.1622 62.4124 27.6877 61.1717 27.9995 59.9843C28.1893 59.3039 29.0162 58.4234 29.6669 58.2366C30.3854 58.0231 31.497 58.1566 32.0799 58.5434Z" fill="#3796F3"/>
</svg>
