<svg width="65" height="72" viewBox="0 0 65 72" fill="none" xmlns="http://www.w3.org/2000/svg">
<path fill-rule="evenodd" clip-rule="evenodd" d="M32.5955 27.5731C37.4069 27.5731 41.3062 31.4728 41.3062 36.2847C41.3062 41.0965 37.4069 44.9963 32.5955 44.9963C27.7841 44.9963 23.8848 41.0965 23.8848 36.2847C23.8848 31.4728 27.7841 27.5731 32.5955 27.5731Z" stroke="#3796F3" stroke-width="5" stroke-linecap="round" stroke-linejoin="round"/>
<path fill-rule="evenodd" clip-rule="evenodd" d="M61.0551 19.7336V19.7336C58.6735 15.5791 53.401 14.1575 49.28 16.5566C45.6955 18.6391 41.2158 16.0334 41.2158 11.8651C41.2158 7.07031 37.3546 3.18079 32.5946 3.18079V3.18079C27.8347 3.18079 23.9735 7.07031 23.9735 11.8651C23.9735 16.0334 19.4937 18.6391 15.9127 16.5566C11.7883 14.1575 6.51581 15.5791 4.13414 19.7336C1.75588 23.8882 3.16712 29.1993 7.29148 31.595C10.8725 33.6808 10.8725 38.8887 7.29148 40.9746C3.16712 43.3737 1.75588 48.6848 4.13414 52.8359C6.51581 56.9904 11.7883 58.412 15.9092 56.0163H15.9127C19.4937 53.9304 23.9735 56.5361 23.9735 60.7044V60.7044C23.9735 65.4992 27.8347 69.3887 32.5946 69.3887V69.3887C37.3546 69.3887 41.2158 65.4992 41.2158 60.7044V60.7044C41.2158 56.5361 45.6955 53.9304 49.28 56.0163C53.401 58.412 58.6735 56.9904 61.0551 52.8359C63.4368 48.6848 62.0221 43.3737 57.9012 40.9746H57.8978C54.3167 38.8887 54.3167 33.6808 57.9012 31.595C62.0221 29.1993 63.4368 23.8882 61.0551 19.7336Z" stroke="#3796F3" stroke-width="5" stroke-linecap="round" stroke-linejoin="round"/>
</svg>
