<svg width="81" height="53" viewBox="0 0 81 53" fill="none" xmlns="http://www.w3.org/2000/svg">
<path d="M18.3641 1.18275C16.8803 1.57452 15.3604 2.41147 14.2024 3.47992C13.0081 4.56618 11.4882 7.00582 5.49901 17.2986C1.80777 23.6915 1.15638 24.9024 0.559263 26.6475C0.125 27.8762 0.125 27.9653 0.125 35.4623V43.0305L0.613546 44.3304C1.30113 46.2002 2.11537 47.4645 3.47245 48.8179C4.84761 50.1535 6.13231 50.9548 8.03221 51.6315L9.3531 52.1123H40.4753H71.5975L72.8641 51.7205C74.6374 51.1685 76.2839 50.1713 77.6591 48.8179C79.0162 47.4645 79.8304 46.1824 80.518 44.3304L81.0066 43.0305V35.4623V27.8941L80.4094 26.2023C80.0837 25.2763 79.3419 23.7093 78.7629 22.7299C78.1838 21.7505 76.3201 18.5451 74.6012 15.6069C67.852 4.08538 67.273 3.28404 64.8845 2.03751C62.6408 0.862217 63.8351 0.915638 40.4753 0.933445C22.8695 0.933445 19.1421 0.98687 18.3641 1.18275ZM61.9713 6.86336C62.9303 7.25512 63.5094 8.09208 67.6711 15.1973L69.3176 18.0109H40.5658H11.8139L14.6004 13.2385C17.5498 8.18111 18.2193 7.25512 19.1059 6.86336C19.9383 6.50721 61.1028 6.50721 61.9713 6.86336ZM72.0861 24.2969C73.2622 24.8668 74.2755 25.8818 74.8364 27.0749C75.1983 27.8762 75.2164 28.1077 75.2164 35.1061C75.2164 42.0867 75.1983 42.336 74.8364 43.1195C74.2574 44.3304 73.2441 45.3632 72.0861 45.9153L71.0547 46.4139H40.5658H10.0769L9.04549 45.9153C7.86936 45.3454 6.85608 44.3304 6.29516 43.1373C5.93327 42.3538 5.91518 42.0332 5.8609 35.4979C5.82471 29.7995 5.8609 28.5173 6.07803 27.7338C6.60276 26.0065 7.92365 24.6353 9.67879 24.0298C10.5654 23.7271 12.1939 23.7271 40.8372 23.7627L71.0547 23.7983L72.0861 24.2969Z" fill="#3796F3"/>
<path d="M18.925 32.5949C16.9527 33.4853 16.9527 36.655 18.925 37.581C19.685 37.955 19.9202 37.955 34.7394 37.955C51.4043 37.955 50.59 38.0084 51.5309 36.7797C51.9652 36.2276 52.0557 35.9427 52.0557 35.088C52.0557 33.9839 51.7481 33.4141 50.8072 32.7196C50.3186 32.3456 50.1558 32.3456 34.9928 32.31C20.3545 32.2566 19.6307 32.2744 18.925 32.5949Z" fill="#3796F3"/>
<path d="M59.6555 32.5058C57.8279 33.2893 57.3937 35.6755 58.8231 37.0823C59.9992 38.2398 61.6639 38.2398 62.8401 37.0823C65.0837 34.8742 62.5686 31.2593 59.6555 32.5058Z" fill="#3796F3"/>
</svg>
