<svg width="59" height="69" viewBox="0 0 59 69" fill="none" xmlns="http://www.w3.org/2000/svg">
<path d="M28.1768 0.792686C27.8654 0.96595 27.0393 1.59235 26.3486 2.20544C20.4441 7.40327 13.5916 9.97554 4.65364 10.3487C1.71493 10.4687 1.29512 10.5886 0.64508 11.5216C0.306519 12.0014 0.306519 12.068 0.19818 15.8131C0.0356708 21.2109 0.157553 29.9139 0.428401 32.6195C1.18678 40.203 2.81187 46.0539 5.5339 50.9052C9.33932 57.7024 15.2438 62.9135 23.2068 66.5121C25.6444 67.6183 28.6644 68.7378 29.2196 68.7378C29.4498 68.7378 30.4655 68.4313 31.4812 68.0581C38.0357 65.6457 43.3985 62.3138 47.5019 58.1289C53.6908 51.7982 56.8732 44.0814 58.0108 32.6195C58.2817 29.9139 58.4035 21.2109 58.241 15.8131C58.1327 12.068 58.1327 12.0014 57.7941 11.5216C57.1441 10.5886 56.7243 10.4687 53.7856 10.3487C44.7392 9.97554 37.6701 7.27 31.7385 1.92555C30.0863 0.446167 29.3009 0.19294 28.1768 0.792686ZM30.5197 7.19003C33.824 9.80228 37.819 11.9081 41.9359 13.2142C44.8069 14.1338 47.4342 14.6269 51.1448 14.9601C52.2959 15.0668 53.271 15.1867 53.3116 15.24C53.4876 15.4 53.3928 30.647 53.2168 32.3529C52.499 39.1901 51.3479 43.5216 49.0863 47.8798C45.4841 54.8369 39.3087 59.9548 30.4113 63.3534L29.2196 63.8065L28.0414 63.3534C19.9972 60.288 13.8896 55.5699 10.3685 49.719C7.47046 44.9077 6.03497 40.0564 5.22242 32.3529C5.04637 30.647 4.95157 15.4 5.12762 15.24C5.16825 15.1867 6.14331 15.0668 7.29441 14.9601C11.005 14.6269 13.6323 14.1338 16.5033 13.2142C20.6202 11.9081 24.561 9.82893 27.9195 7.19003C28.5831 6.65692 29.179 6.23043 29.2196 6.23043C29.2602 6.23043 29.8561 6.65692 30.5197 7.19003Z" fill="#3796F3"/>
<path d="M38.2931 25.8357C38.1035 25.9023 35.2325 28.6478 31.9011 31.9265L25.8341 37.8707L23.0308 35.1251C20.3494 32.5129 20.1869 32.3796 19.5775 32.2863C17.6951 32.0064 16.2461 33.7657 16.8961 35.5116C17.0857 36.0048 24.2903 43.1218 24.8455 43.3617C25.5903 43.6816 26.5112 43.6016 27.2019 43.1618C28.1634 42.5487 41.2183 29.5808 41.4756 28.9944C42.1527 27.355 41.0422 25.6757 39.2817 25.7024C38.9296 25.7024 38.4827 25.769 38.2931 25.8357Z" fill="#3796F3"/>
</svg>
