<svg width="75" height="71" viewBox="0 0 75 71" fill="none" xmlns="http://www.w3.org/2000/svg">
<path d="M10.4443 1.11725C7.78432 1.8143 5.70671 3.90545 4.99844 6.55423C4.79383 7.31324 4.76235 9.82262 4.76235 24.0734V40.7251L4.36886 42.5994C4.16425 43.6217 3.2671 48.3462 2.38569 53.0706C1.1895 59.4835 0.780273 61.9773 0.780273 62.9067C0.796013 66.392 3.28284 69.3816 6.77699 70.0941C7.37509 70.218 16.2993 70.2645 37.5161 70.2645C70.7105 70.2645 68.6487 70.3264 70.5059 69.2421C72.1586 68.2508 73.2446 66.9496 73.8584 65.1373C74.4723 63.3869 74.3936 62.5969 72.615 53.0706C71.7336 48.3462 70.8522 43.6527 70.6318 42.6459L70.2383 40.8335V24.1353C70.2383 9.63673 70.2069 7.31324 70.0023 6.52325C69.294 3.85898 67.1849 1.79881 64.462 1.10176C63.1241 0.760979 11.7507 0.776474 10.4443 1.11725ZM64.037 6.22894C64.2731 6.39933 64.6194 6.74011 64.7925 6.97246C65.123 7.39069 65.123 7.51461 65.1702 22.7258L65.2017 38.0453H37.5003H9.79896V22.9581C9.79896 12.6418 9.84618 7.71598 9.9721 7.42167C10.1924 6.84854 10.7118 6.2909 11.2942 6.04306C11.6877 5.87267 16.3308 5.84169 37.6892 5.87267C63.5963 5.90365 63.612 5.90365 64.037 6.22894ZM64.8397 43.4049C65.8156 44.1174 65.8313 44.1484 67.6099 53.7832C68.9162 60.8621 69.2625 63.0152 69.1523 63.3869C68.932 64.1459 68.507 64.6881 67.8617 65.0134C67.2793 65.3077 66.6498 65.3077 37.5003 65.3077C7.98893 65.3077 7.7371 65.3077 7.12326 64.9979C6.77699 64.8275 6.38351 64.5177 6.25759 64.3163C5.61228 63.3714 5.61228 63.3869 7.35935 53.9226C8.27224 48.9813 9.05921 44.8145 9.10643 44.6596C9.24808 44.2104 9.98784 43.4359 10.5072 43.219C10.9007 43.0486 15.717 43.0176 37.6892 43.0486L64.399 43.0796L64.8397 43.4049Z" fill="#3796F3"/>
<path d="M23.8859 13.4786C23.6341 13.6025 22.0916 15.0121 20.4705 16.6075C16.2366 20.8363 16.2366 20.573 20.6279 24.9102C23.9646 28.194 24.1535 28.3025 25.4914 28.0546C26.2626 27.9152 27.207 26.9858 27.3486 26.2268C27.5847 25.0031 27.3801 24.6313 25.334 22.5867L23.4295 20.6969L25.334 18.7916C26.8764 17.2581 27.2699 16.7934 27.3486 16.3132C27.7421 14.2685 25.7589 12.6421 23.8859 13.4786Z" fill="#3796F3"/>
<path d="M39.2315 13.6179C38.5862 13.9587 38.3501 14.284 35.3911 19.3028C32.5108 24.1976 32.2432 24.7243 32.196 25.4988C32.1173 26.5985 32.4793 27.2956 33.4237 27.7913C33.9431 28.0546 34.2893 28.132 34.7773 28.0856C36.1151 27.9462 36.241 27.7913 39.6093 22.06C42.4738 17.2116 42.7571 16.6695 42.8044 15.895C42.8831 14.7952 42.5211 14.0981 41.5924 13.6179C40.7268 13.1687 40.0972 13.1687 39.2315 13.6179Z" fill="#3796F3"/>
<path d="M49.0687 13.4786C48.4233 13.7574 47.7623 14.5474 47.6364 15.1979C47.416 16.3907 47.6364 16.7779 49.6667 18.7916L51.5712 20.6969L49.6667 22.5867C47.6206 24.6313 47.416 25.0031 47.6521 26.2268C47.7938 26.9858 48.7381 27.9152 49.5094 28.0546C50.8472 28.3025 51.0361 28.194 54.3728 24.9102C58.7641 20.573 58.7641 20.8363 54.5302 16.6075C52.9091 15.0121 51.3666 13.6025 51.0833 13.4786C50.4537 13.2152 49.6825 13.2152 49.0687 13.4786Z" fill="#3796F3"/>
<path d="M19.8721 47.9592V50.4376H22.3904H24.9087V47.9592V45.4808H22.3904H19.8721V47.9592Z" fill="#3796F3"/>
<path d="M29.9453 47.9592V50.4376H32.4636H34.9819V47.9592V45.4808H32.4636H29.9453V47.9592Z" fill="#3796F3"/>
<path d="M40.0186 47.9592V50.4376H42.5369H45.0552V47.9592V45.4808H42.5369H40.0186V47.9592Z" fill="#3796F3"/>
<path d="M50.0918 47.9592V50.4376H52.6101H55.1284V47.9592V45.4808H52.6101H50.0918V47.9592Z" fill="#3796F3"/>
<path d="M12.3174 57.8728V60.3512H14.8357H17.354V57.8728V55.3944H14.8357H12.3174V57.8728Z" fill="#3796F3"/>
<path d="M23.8859 55.6112C22.8314 56.0604 22.2333 57.2531 22.4536 58.4149C22.5953 59.1429 23.3822 59.9948 24.0905 60.1962C24.484 60.3201 28.891 60.3511 37.8468 60.3201C50.8633 60.2737 51.0207 60.2737 51.4456 59.9484C52.2798 59.3443 52.5317 58.8486 52.5317 57.8727C52.5317 56.8968 52.2798 56.4012 51.4456 55.7971C51.0207 55.4718 50.879 55.4718 37.6894 55.4408C26.8449 55.4098 24.2637 55.4408 23.8859 55.6112Z" fill="#3796F3"/>
<path d="M57.6465 57.8728V60.3512H60.1648H62.6831V57.8728V55.3944H60.1648H57.6465V57.8728Z" fill="#3796F3"/>
</svg>
