<svg width="56" height="55" viewBox="0 0 56 55" fill="none" xmlns="http://www.w3.org/2000/svg">
<g clip-path="url(#clip0_6219_2754)">
<path d="M27.6027 54.8952C42.8096 54.8952 55.1371 42.763 55.1371 27.7972C55.1371 12.8314 42.8096 0.699219 27.6027 0.699219C12.3959 0.699219 0.0683594 12.8314 0.0683594 27.7972C0.0683594 42.763 12.3959 54.8952 27.6027 54.8952Z" fill="#F0F0F0"/>
<path d="M55.1374 27.7973C55.1374 16.1461 47.6653 6.21352 37.1802 2.38477V53.2099C47.6653 49.381 55.1374 39.4485 55.1374 27.7973Z" fill="#D80027"/>
<path d="M0.0688477 27.7973C0.0688477 39.4485 7.5411 49.381 18.0261 53.2098V2.38477C7.5411 6.21352 0.0688477 16.1461 0.0688477 27.7973Z" fill="#0052B4"/>
</g>
<defs>
<clipPath id="clip0_6219_2754">
<rect width="55.0688" height="54.196" fill="white" transform="translate(0.0688477 0.699219)"/>
</clipPath>
</defs>
</svg>
