<svg width="56" height="55" viewBox="0 0 56 55" fill="none" xmlns="http://www.w3.org/2000/svg">
<g clip-path="url(#clip0_6219_2755)">
<path d="M2.64941 37.2225C6.53983 47.5413 16.6324 54.8951 28.4712 54.8951C40.31 54.8951 50.4025 47.5413 54.2929 37.2225L28.4712 34.8662L2.64941 37.2225Z" fill="#FFDA44"/>
<path d="M28.4712 0.699219C16.6324 0.699219 6.53983 8.05294 2.64941 18.3719L28.4712 20.7281L54.2929 18.3718C50.4025 8.05294 40.31 0.699219 28.4712 0.699219Z" fill="black"/>
<path d="M2.64914 18.3721C1.54239 21.3077 0.936523 24.4828 0.936523 27.7974C0.936523 31.112 1.54239 34.2872 2.64914 37.2227H54.2928C55.3995 34.2872 56.0053 31.112 56.0053 27.7974C56.0053 24.4828 55.3995 21.3077 54.2927 18.3721H2.64914Z" fill="#D80027"/>
</g>
<defs>
<clipPath id="clip0_6219_2755">
<rect width="55.0688" height="54.196" fill="white" transform="translate(0.936523 0.699219)"/>
</clipPath>
</defs>
</svg>
