<svg width="56" height="55" viewBox="0 0 56 55" fill="none" xmlns="http://www.w3.org/2000/svg">
<g clip-path="url(#clip0_6219_2752)">
<path d="M28.363 54.8952C43.5698 54.8952 55.8974 42.763 55.8974 27.7972C55.8974 12.8314 43.5698 0.699219 28.363 0.699219C13.1562 0.699219 0.828613 12.8314 0.828613 27.7972C0.828613 42.763 13.1562 54.8952 28.363 54.8952Z" fill="#F0F0F0"/>
<path d="M7.12207 10.5528H49.6033C48.0343 8.68297 46.2144 7.0248 44.1957 5.62598H12.5297C10.5109 7.02459 8.69121 8.68286 7.12207 10.5528Z" fill="#F0F0F0"/>
<path d="M0.828613 27.7974C0.828613 28.628 0.868732 29.4492 0.943053 30.2608H55.7829C55.8572 29.4492 55.8974 28.628 55.8974 27.7974C55.8974 26.9667 55.8572 26.1455 55.7829 25.334H0.943053C0.868732 26.1455 0.828613 26.9667 0.828613 27.7974H0.828613Z" fill="#F0F0F0"/>
<path d="M3.83093 40.1143H52.8946C53.7054 38.5534 54.3666 36.9052 54.8603 35.1875H1.86523C2.35881 36.9052 3.02028 38.5535 3.83093 40.1143Z" fill="#F0F0F0"/>
<path d="M12.5297 49.9679H44.1956C46.2143 48.569 48.0342 46.9109 49.6032 45.041H7.12207C8.69121 46.9107 10.5109 48.569 12.5297 49.9679Z" fill="#F0F0F0"/>
<path d="M1.86523 20.4073H54.8605C54.3668 18.6896 53.7055 17.0412 52.8947 15.4805H3.83104C3.02039 17.0412 2.35892 18.6896 1.86523 20.4073Z" fill="#F0F0F0"/>
<path d="M13.9966 5.62608H44.1953C39.7167 2.52272 34.2561 0.699219 28.3623 0.699219C24.7709 0.699219 18.4752 2.52272 13.9966 5.62608Z" fill="#D80027"/>
<path d="M27.1655 15.4796H52.8945C51.9788 13.7168 50.873 12.0657 49.6033 10.5527H27.1655V15.4796Z" fill="#D80027"/>
<path d="M27.1655 25.3341H55.7826C55.6277 23.6424 55.3164 21.9949 54.8603 20.4072H27.1655V25.3341Z" fill="#D80027"/>
<path d="M1.86478 35.1876H54.8599C55.3161 33.6 55.6274 31.9525 55.7823 30.2607H0.942383C1.09726 31.9525 1.40853 33.5999 1.86478 35.1876Z" fill="#D80027"/>
<path d="M7.12178 45.0411H49.603C50.8727 43.528 51.9786 41.8769 52.8942 40.1143H3.83057C4.74619 41.877 5.85208 43.5282 7.12178 45.0411Z" fill="#D80027"/>
<path d="M28.3623 54.8956C34.2561 54.8956 39.7167 53.0721 44.1953 49.9688H12.5293C17.0079 53.0721 22.4686 54.8956 28.3623 54.8956Z" fill="#D80027"/>
<path d="M1.86517 20.4069C1.40891 21.9946 1.09775 23.642 0.942871 25.3337H28.3628V0.699219C15.7594 0.699219 5.13401 9.03312 1.86517 20.4069Z" fill="#0052B4"/>
<path d="M17.2185 7.76855L19.0012 13.1686H24.7712L20.1035 16.5063L21.8861 21.9066L17.2185 18.5691L12.5507 21.9066L14.3337 16.5063L9.66602 13.1686H15.4356L17.2185 7.76855Z" fill="#F0F0F0"/>
</g>
<defs>
<clipPath id="clip0_6219_2752">
<rect width="55.0688" height="54.196" fill="white" transform="translate(0.828125 0.699219)"/>
</clipPath>
</defs>
</svg>
