<svg width="56" height="55" viewBox="0 0 56 55" fill="none" xmlns="http://www.w3.org/2000/svg">
<g clip-path="url(#clip0_6219_2753)">
<path d="M27.8737 54.8952C43.0805 54.8952 55.4081 42.763 55.4081 27.7972C55.4081 12.8314 43.0805 0.699219 27.8737 0.699219C12.6669 0.699219 0.339355 12.8314 0.339355 27.7972C0.339355 42.763 12.6669 54.8952 27.8737 54.8952Z" fill="#F0F0F0"/>
<path d="M55.4082 27.7968C55.4082 17.0535 49.0554 7.77079 39.8452 3.3877V52.2059C49.0554 47.8229 55.4082 38.5401 55.4082 27.7968Z" fill="#D80027"/>
<path d="M0.339355 27.7968C0.339355 38.5401 6.69216 47.8229 15.9023 52.206V3.3877C6.69216 7.77079 0.339355 17.0535 0.339355 27.7968Z" fill="#D80027"/>
<path d="M32.6626 31.3315L37.4511 28.9751L35.0569 27.797V25.4407L30.2683 27.797L32.6626 23.0843H30.2683L27.874 19.5498L25.4797 23.0843H23.0854L25.4797 27.797L20.6911 25.4407V27.797L18.2969 28.9751L23.0854 31.3315L21.8883 33.6879H26.6769V37.2224H29.0711V33.6879H33.8597L32.6626 31.3315Z" fill="#D80027"/>
</g>
<defs>
<clipPath id="clip0_6219_2753">
<rect width="55.0688" height="54.196" fill="white" transform="translate(0.339844 0.699219)"/>
</clipPath>
</defs>
</svg>
